<?xml version="1.0" standalone="no"?>
<!DOCTYPE svg PUBLIC "-//W3C//DTD SVG 20010904//EN"
 "http://www.w3.org/TR/2001/REC-SVG-20010904/DTD/svg10.dtd">
<svg version="1.0" xmlns="http://www.w3.org/2000/svg"
 width="1024.000000pt" height="1024.000000pt" viewBox="0 0 1024.000000 1024.000000"
 preserveAspectRatio="xMidYMid meet">
<metadata>
Created by potrace 1.14, written by Peter Selinger 2001-2017
</metadata>
<g transform="translate(0.000000,1024.000000) scale(0.100000,-0.100000)"
fill="#000000" stroke="none">
<path d="M5030 9930 c-19 -3 -47 -5 -62 -5 -16 1 -28 -2 -28 -5 0 -3 -12 -7
-27 -8 -16 -1 -39 -5 -53 -8 -14 -3 -36 -7 -50 -10 -13 -3 -28 -11 -32 -17 -4
-7 -8 -9 -8 -4 0 4 -13 1 -30 -8 -16 -9 -30 -13 -30 -10 0 8 -112 -55 -139
-79 -59 -51 -98 -95 -98 -110 0 -9 4 -16 9 -16 5 0 7 -4 4 -8 -10 -16 38 -52
69 -52 8 0 15 -5 15 -11 0 -5 4 -8 9 -4 5 3 15 0 23 -7 7 -7 19 -14 27 -16 7
-1 20 -9 28 -17 8 -8 20 -15 26 -15 7 0 6 -4 -3 -10 -13 -8 -12 -10 3 -10 9 0
17 -7 17 -15 0 -8 5 -15 10 -15 6 0 18 -18 27 -40 10 -22 21 -40 25 -40 5 0 8
-9 8 -19 0 -11 5 -23 11 -26 6 -4 8 -13 5 -21 -3 -8 -2 -14 3 -14 8 0 14 -21
27 -83 2 -10 0 -16 -4 -13 -5 3 -18 -1 -28 -9 -24 -18 -38 -19 -28 -2 5 7 1 6
-10 -3 -21 -16 -77 -15 -88 3 -5 8 -8 6 -8 -7 0 -16 -2 -17 -17 -5 -14 12 -16
12 -8 0 6 -11 4 -13 -8 -8 -9 3 -19 2 -22 -4 -4 -5 -10 -7 -15 -4 -5 3 -11 1
-15 -5 -4 -6 -10 -8 -14 -6 -4 3 -27 -1 -52 -8 -24 -6 -54 -11 -66 -10 -13 0
-23 -2 -23 -7 0 -4 -9 -6 -20 -4 -11 2 -20 0 -20 -5 0 -5 -9 -7 -20 -5 -11 2
-20 0 -20 -5 0 -5 -9 -7 -20 -5 -11 2 -20 1 -20 -3 0 -4 -12 -9 -26 -10 -15
-1 -32 -6 -39 -12 -6 -5 -14 -7 -18 -4 -3 3 -16 -2 -29 -10 -14 -9 -28 -13
-31 -9 -4 3 -7 1 -7 -6 0 -7 -4 -10 -8 -7 -5 3 -20 -1 -35 -9 -14 -7 -28 -11
-31 -7 -3 3 -6 0 -6 -5 0 -6 -12 -10 -26 -8 -15 1 -28 -3 -31 -11 -3 -8 -9
-11 -14 -8 -5 3 -9 0 -9 -7 0 -7 -3 -10 -6 -6 -4 3 -28 -2 -55 -13 -27 -10
-49 -16 -49 -13 0 2 -7 -3 -16 -11 -8 -9 -19 -14 -23 -11 -5 2 -25 -5 -47 -15
-21 -11 -44 -20 -51 -20 -8 0 -16 -7 -19 -15 -4 -8 -10 -13 -14 -10 -4 3 -23
-3 -41 -12 -19 -10 -40 -18 -48 -19 -8 -2 -17 -7 -20 -12 -3 -5 -18 -12 -33
-16 -16 -3 -28 -11 -28 -17 0 -6 -4 -7 -10 -4 -5 3 -10 1 -10 -4 0 -6 -3 -10
-7 -9 -5 1 -18 -3 -30 -10 -13 -7 -23 -9 -23 -5 0 4 -4 2 -9 -6 -5 -8 -16 -16
-25 -17 -8 -1 -29 -12 -45 -23 -16 -12 -36 -21 -45 -21 -9 0 -16 -4 -16 -9 0
-5 -16 -15 -35 -22 -19 -7 -35 -19 -35 -27 0 -7 -5 -10 -11 -7 -6 4 -21 -3
-35 -16 -13 -12 -24 -19 -24 -15 0 4 -7 1 -15 -6 -37 -33 -46 -39 -57 -32 -6
4 -9 3 -6 -2 7 -10 -11 -27 -32 -32 -8 -2 -23 -12 -33 -23 -10 -11 -23 -16
-29 -13 -6 4 -8 3 -4 -4 3 -6 -3 -13 -14 -17 -11 -3 -20 -11 -20 -16 0 -6 -4
-7 -10 -4 -5 3 -10 -2 -10 -11 0 -10 -3 -14 -6 -11 -4 4 -15 -3 -25 -15 -11
-11 -19 -18 -19 -15 0 4 -20 -12 -44 -36 -24 -23 -56 -51 -72 -62 -15 -11 -35
-28 -43 -37 -9 -10 -24 -18 -34 -18 -10 0 -16 -4 -13 -9 3 -5 -6 -17 -21 -26
-15 -10 -36 -28 -48 -41 -12 -13 -28 -24 -34 -24 -7 0 -9 -4 -6 -10 3 -5 2
-10 -4 -10 -6 0 -24 -13 -41 -30 -17 -16 -35 -30 -41 -30 -6 0 -7 -5 -4 -10 3
-6 -2 -13 -12 -17 -22 -9 -99 -85 -96 -95 3 -8 -13 -12 -30 -9 -5 1 -6 -3 -2
-9 3 -5 -1 -13 -9 -16 -9 -3 -16 -10 -16 -16 0 -14 -27 -38 -34 -31 -3 4 -6
-1 -6 -11 0 -9 -4 -14 -10 -11 -5 3 -10 2 -10 -3 0 -5 -27 -37 -60 -70 -33
-34 -60 -66 -60 -71 0 -5 -11 -16 -25 -25 -14 -9 -23 -21 -20 -26 4 -6 1 -10
-4 -10 -6 0 -20 -9 -31 -20 -11 -11 -18 -20 -15 -20 3 0 -5 -12 -19 -27 -14
-15 -23 -30 -20 -35 3 -4 1 -8 -4 -8 -14 0 -52 -36 -45 -43 3 -4 -2 -9 -11
-13 -9 -3 -16 -12 -16 -19 0 -6 -9 -20 -20 -30 -11 -10 -18 -21 -15 -25 2 -3
-5 -13 -16 -20 -10 -8 -19 -20 -19 -27 0 -7 -4 -13 -8 -13 -5 0 -19 -19 -32
-42 -13 -24 -30 -49 -37 -56 -7 -8 -11 -17 -8 -22 3 -4 -2 -13 -10 -20 -8 -7
-12 -16 -9 -21 3 -5 0 -9 -5 -9 -6 0 -11 -7 -11 -16 0 -8 -4 -12 -10 -9 -5 3
-11 1 -11 -4 -1 -6 -3 -15 -4 -21 -1 -5 -3 -14 -4 -20 0 -5 -8 -10 -16 -10 -8
0 -12 -6 -9 -14 3 -7 -1 -20 -9 -28 -8 -7 -20 -30 -28 -51 -7 -20 -17 -37 -22
-37 -4 0 -5 -5 -2 -10 3 -6 -1 -13 -9 -16 -9 -3 -14 -10 -11 -14 3 -5 1 -11
-5 -15 -6 -4 -8 -11 -5 -16 4 -5 1 -9 -4 -9 -6 0 -10 -3 -9 -7 1 -5 -3 -18
-10 -29 -6 -12 -8 -24 -5 -28 3 -3 1 -6 -5 -6 -9 0 -28 -40 -23 -48 1 -1 -7
-14 -19 -29 -11 -14 -20 -34 -20 -44 0 -11 -5 -19 -11 -19 -6 0 -8 -7 -5 -15
3 -9 -1 -18 -9 -21 -8 -4 -12 -10 -10 -15 3 -4 -4 -26 -15 -49 -11 -22 -18
-40 -15 -40 3 0 -2 -14 -10 -30 -9 -17 -13 -35 -10 -40 3 -6 1 -10 -5 -10 -6
0 -8 -4 -5 -10 3 -5 1 -10 -4 -10 -6 0 -11 -13 -11 -30 0 -16 -4 -30 -9 -30
-5 0 -8 -8 -6 -17 1 -10 -2 -27 -9 -38 -6 -11 -11 -31 -11 -45 0 -14 -4 -28
-9 -32 -5 -3 -10 -17 -12 -30 -1 -12 -3 -24 -4 -25 -2 -2 -3 -6 -5 -10 -1 -5
-4 -15 -7 -23 -26 -75 -44 -139 -37 -134 4 2 2 -7 -5 -21 -7 -14 -13 -35 -12
-48 1 -12 -1 -24 -5 -27 -6 -4 -13 -37 -23 -110 -2 -14 -7 -45 -11 -70 -4 -25
-7 -53 -7 -62 0 -10 -2 -18 -6 -18 -4 0 -7 -19 -7 -43 1 -23 -3 -48 -8 -54 -6
-9 -5 -13 4 -13 9 0 10 -3 4 -8 -13 -9 -16 -25 -17 -76 0 -23 -5 -49 -10 -60
-6 -10 -6 -16 -1 -13 5 3 9 -10 9 -28 -1 -19 -4 -35 -8 -35 -3 0 -7 -24 -7
-52 0 -29 -1 -101 -2 -160 -1 -58 1 -110 3 -115 2 -4 3 -47 3 -95 0 -49 2 -88
5 -88 3 0 5 -17 4 -37 -1 -20 2 -47 6 -59 6 -15 5 -24 -3 -28 -9 -3 -8 -5 1
-5 7 -1 10 -5 7 -11 -3 -6 -1 -10 6 -10 9 0 9 -3 0 -14 -9 -11 -9 -15 1 -19
10 -4 10 -8 -2 -16 -9 -7 -10 -11 -3 -11 6 0 12 -8 12 -17 3 -70 7 -103 11
-103 3 0 5 -15 5 -32 -1 -18 3 -39 8 -45 6 -9 5 -13 -3 -13 -9 0 -9 -5 3 -18
10 -11 13 -22 7 -32 -5 -8 -6 -19 -2 -25 7 -12 10 -24 16 -80 3 -22 8 -53 11
-70 3 -16 6 -42 7 -57 1 -16 6 -28 12 -28 6 0 4 -5 -4 -10 -12 -8 -12 -10 -1
-10 8 0 11 -3 8 -6 -3 -4 -2 -15 4 -25 7 -14 6 -19 -2 -19 -9 0 -9 -3 0 -14 6
-7 9 -21 5 -30 -4 -10 -1 -16 7 -16 7 0 9 -3 6 -7 -4 -3 -1 -13 6 -21 10 -13
9 -14 -1 -8 -11 7 -12 4 -3 -11 6 -11 7 -24 3 -28 -4 -5 -1 -5 6 -1 8 5 12 0
12 -14 0 -12 5 -31 11 -42 8 -16 8 -19 -1 -13 -9 6 -9 2 0 -15 10 -18 9 -24
-1 -31 -12 -7 -12 -9 0 -9 9 0 11 -7 8 -21 -3 -12 0 -22 9 -26 11 -4 12 -8 3
-20 -10 -11 -9 -13 2 -11 8 2 13 -4 13 -15 -1 -9 2 -17 7 -17 5 0 9 -10 9 -22
0 -21 0 -21 14 -2 14 18 15 18 12 -7 -3 -22 0 -25 26 -21 21 3 28 0 28 -12 0
-11 -5 -15 -12 -11 -7 4 -3 -2 10 -12 18 -15 20 -21 10 -31 -11 -11 -10 -13 2
-10 8 2 16 -4 16 -12 1 -8 3 -17 4 -20 3 -10 11 -45 12 -57 1 -7 5 -13 10 -13
4 0 8 -10 8 -23 0 -12 7 -32 15 -43 8 -12 11 -24 8 -28 -3 -3 -1 -6 6 -6 7 0
10 -4 6 -9 -3 -5 1 -15 8 -23 8 -7 13 -21 11 -30 -1 -10 4 -22 12 -29 8 -6 14
-20 14 -29 0 -10 4 -20 9 -22 5 -1 11 -10 13 -18 2 -8 8 -18 13 -22 5 -4 10
-11 10 -15 1 -4 13 -34 28 -66 15 -32 27 -64 27 -71 0 -8 5 -16 10 -18 6 -2
12 -13 13 -26 0 -12 5 -22 10 -22 4 0 5 -4 2 -10 -3 -5 -1 -10 5 -10 6 0 8 -4
5 -10 -3 -5 -2 -10 3 -10 5 0 17 -18 27 -40 10 -22 23 -40 28 -40 6 0 8 -3 4
-6 -3 -4 -1 -12 6 -19 7 -7 28 -32 47 -56 19 -24 45 -53 57 -65 12 -12 19 -25
16 -28 -4 -3 1 -6 10 -6 10 0 17 -4 17 -8 0 -5 14 -24 30 -42 16 -18 30 -40
30 -47 0 -8 4 -11 10 -8 5 3 10 0 10 -7 0 -7 12 -24 25 -37 14 -13 25 -29 25
-36 0 -7 7 -15 15 -19 8 -3 15 -12 15 -21 0 -8 4 -15 9 -15 8 0 24 -37 22 -53
-1 -4 3 -7 9 -7 5 0 10 -6 10 -13 0 -7 8 -28 18 -47 11 -19 17 -41 15 -47 -3
-7 -1 -13 4 -13 5 0 9 -10 10 -22 1 -11 8 -25 15 -29 7 -5 10 -9 5 -9 -4 0 0
-11 9 -25 9 -14 13 -25 9 -25 -5 0 2 -9 14 -19 12 -11 22 -22 23 -25 0 -21 12
-45 19 -40 5 3 9 -3 9 -13 0 -10 9 -25 19 -33 11 -7 18 -17 16 -21 -3 -4 2
-12 10 -19 8 -7 15 -18 15 -25 0 -8 4 -15 10 -17 5 -1 10 -25 12 -53 2 -27 10
-57 18 -67 29 -32 40 -47 40 -53 0 -12 64 -64 72 -59 4 3 8 0 8 -6 0 -15 26
-41 34 -33 3 4 6 -1 6 -10 0 -9 5 -17 10 -17 6 0 10 -7 10 -15 0 -8 5 -15 10
-15 6 0 10 -9 10 -21 0 -11 4 -18 9 -15 4 3 16 -12 26 -34 10 -22 22 -40 27
-40 4 0 7 -3 6 -7 -4 -12 53 -103 63 -103 5 0 8 -3 7 -8 -2 -4 7 -18 20 -32
12 -13 22 -27 22 -32 0 -4 7 -8 16 -8 9 0 12 -5 8 -12 -4 -6 -3 -8 3 -5 12 8
65 -7 107 -30 23 -13 27 -13 22 -2 -4 8 0 5 8 -5 9 -11 26 -21 38 -23 13 -2
25 -8 26 -13 2 -6 8 -8 13 -4 5 3 9 0 9 -5 0 -6 6 -11 14 -11 7 0 26 -7 42
-14 15 -8 32 -12 37 -9 7 4 8 -1 3 -13 -4 -10 -4 -15 0 -11 4 4 13 2 21 -5 7
-6 16 -8 19 -5 3 3 16 -5 28 -17 11 -13 26 -21 31 -19 6 1 21 -7 35 -19 14
-13 36 -25 50 -26 14 -2 27 -8 28 -13 2 -5 12 -9 23 -9 10 0 19 -4 19 -10 0
-5 11 -10 25 -10 14 0 25 -4 25 -9 0 -9 46 -31 73 -35 9 -1 24 -10 35 -19 10
-9 26 -17 36 -17 9 0 19 -7 22 -15 4 -8 10 -12 15 -9 5 3 9 0 9 -7 0 -8 4 -8
15 1 10 9 15 9 15 1 0 -6 7 -11 16 -11 9 0 12 -5 8 -13 -5 -9 -4 -9 5 -1 10 9
19 9 39 -2 14 -7 29 -11 34 -8 4 3 8 0 8 -6 0 -7 6 -10 14 -7 7 3 18 1 23 -4
6 -6 26 -13 44 -16 19 -3 37 -10 40 -15 4 -6 9 -6 14 2 5 9 9 9 14 1 4 -6 24
-12 44 -13 20 -2 37 -5 37 -8 0 -5 23 -10 63 -13 9 -1 17 -4 17 -7 0 -3 15 -6
33 -7 56 -4 62 -5 76 -17 11 -8 13 -8 7 2 -4 6 -3 12 3 12 5 0 11 -6 14 -12 3
-10 8 -9 22 2 11 9 16 10 11 3 -7 -12 11 -18 37 -14 5 1 5 -3 2 -9 -4 -6 1
-14 11 -16 16 -4 60 -58 73 -89 2 -5 12 -18 22 -29 10 -10 16 -23 13 -28 -3
-4 3 -8 12 -8 10 0 15 -3 12 -6 -3 -3 9 -21 28 -39 19 -19 34 -39 34 -45 0 -5
6 -10 14 -10 8 0 18 -9 21 -20 3 -11 13 -20 21 -20 8 0 13 -3 11 -7 -2 -5 7
-18 20 -30 13 -12 23 -19 23 -15 0 4 5 -1 11 -10 5 -10 17 -18 25 -18 8 0 12
-4 9 -10 -3 -5 5 -15 19 -22 14 -6 26 -15 26 -20 0 -4 4 -8 10 -8 5 0 26 -16
46 -35 19 -19 39 -35 42 -36 4 0 15 -2 25 -4 16 -3 16 -1 5 13 -7 9 -17 20
-23 24 -6 5 -4 8 4 8 11 0 10 4 -5 16 -19 15 -19 16 1 9 19 -6 19 -5 2 12 -17
17 -16 19 14 44 21 17 26 26 16 26 -9 0 -14 -4 -11 -9 3 -4 1 -8 -5 -8 -19 0
-20 18 -2 34 18 16 19 16 32 -13 7 -16 18 -27 24 -23 5 3 4 -2 -4 -11 -12 -16
-12 -17 5 -11 10 4 16 4 12 0 -3 -4 9 -22 27 -41 19 -18 32 -35 30 -37 -2 -2
9 -12 25 -23 16 -11 31 -26 33 -35 2 -8 16 -22 31 -30 26 -13 29 -13 42 5 7
11 18 26 24 33 6 6 8 12 4 12 -4 0 3 9 16 20 13 11 21 20 18 20 -3 0 35 42 86
93 50 51 94 91 99 89 4 -2 7 2 7 8 0 6 4 9 9 6 5 -3 12 1 15 10 3 9 13 14 20
11 17 -7 39 16 28 28 -4 5 -1 5 6 1 7 -4 10 -11 7 -15 -2 -5 7 -7 20 -5 14 1
28 -3 32 -8 3 -6 1 -8 -5 -4 -6 3 -13 2 -16 -3 -7 -10 20 -9 30 2 4 4 12 7 18
7 6 0 4 -5 -4 -10 -11 -7 -11 -10 -2 -10 7 0 10 -4 7 -10 -3 -6 1 -7 10 -4 9
4 14 12 11 19 -3 8 2 11 15 8 10 -3 19 0 19 6 0 6 7 11 16 11 8 0 12 5 9 10
-3 6 -1 10 5 10 13 0 20 6 106 87 36 35 69 63 74 63 4 0 10 9 13 20 3 11 12
20 21 20 9 0 29 8 43 17 15 10 24 12 20 6 -11 -18 1 -16 20 2 11 12 19 13 28
5 9 -8 15 -8 20 0 3 6 11 8 16 5 5 -4 9 0 9 7 0 9 3 9 10 -2 8 -12 10 -12 10
-1 0 8 3 11 7 8 3 -4 12 -2 19 4 8 7 14 7 19 -1 5 -8 14 -6 28 7 11 10 17 12
13 6 -4 -7 -2 -13 3 -13 6 0 11 5 11 11 0 5 5 7 10 4 6 -4 17 -1 25 5 12 10
15 10 15 0 0 -10 3 -10 15 0 8 6 19 9 25 5 5 -3 10 -3 10 2 0 4 15 9 33 11 56
4 67 6 67 13 0 3 13 5 30 4 16 -1 27 2 24 7 -3 5 6 7 20 4 15 -3 24 -1 21 3
-2 5 4 11 15 14 10 3 21 0 24 -7 3 -8 5 -7 5 1 1 7 8 10 18 6 9 -4 14 -2 10 3
-3 6 15 16 41 23 26 8 55 21 65 29 9 8 17 11 17 6 1 -5 7 2 15 16 8 14 14 21
15 17 0 -4 16 8 36 27 20 19 33 40 29 45 -3 6 1 11 10 11 9 0 13 5 10 10 -6 9
8 14 28 11 4 0 7 4 7 10 0 5 4 8 9 4 5 -3 12 -1 16 5 4 6 11 8 16 5 5 -4 9 -1
9 5 0 7 7 10 15 6 8 -3 15 -1 15 5 0 6 7 9 15 5 8 -3 15 -1 15 3 0 5 7 12 16
15 10 4 13 2 8 -7 -4 -6 2 -4 14 6 11 11 25 16 31 13 5 -4 13 -1 16 5 4 5 13
8 20 5 8 -3 15 0 17 5 2 5 13 11 26 12 12 0 22 5 22 9 0 4 3 7 8 6 11 -2 64
13 100 28 18 8 37 12 44 8 7 -4 8 -3 4 4 -4 7 -2 13 3 13 6 1 14 2 19 3 14 2
53 47 47 55 -2 5 2 11 10 15 8 3 15 0 15 -7 0 -8 3 -9 8 -1 4 6 32 11 62 12
30 0 56 1 58 2 1 2 10 4 20 5 37 6 62 18 62 31 0 8 5 14 11 14 5 0 8 4 5 9 -3
4 12 27 33 50 21 22 37 41 35 41 -2 0 19 23 47 52 27 28 49 55 49 60 0 4 15
18 33 29 17 12 24 19 15 15 -23 -7 -23 3 0 21 9 8 12 12 5 9 -14 -7 -11 23 4
32 9 6 22 36 29 65 1 4 3 10 4 15 1 4 2 10 1 15 0 4 4 7 11 7 6 0 8 3 5 7 -4
3 0 17 9 31 8 13 13 26 10 29 -5 6 21 64 33 73 12 9 53 70 47 70 -3 0 2 9 12
19 35 39 76 101 67 101 -4 0 1 7 9 16 9 8 14 20 11 25 -4 5 -2 9 3 9 12 0 33
56 25 64 -4 3 -1 6 6 6 7 0 10 4 7 9 -4 5 -3 11 2 13 17 7 49 75 47 101 -1 15
4 32 12 38 7 6 13 17 13 25 0 7 8 18 18 23 9 6 14 11 10 11 -8 0 18 34 55 72
9 10 14 18 11 18 -4 0 5 11 20 25 15 14 24 25 21 25 -6 0 6 16 48 62 16 16 26
32 23 35 -3 3 5 16 17 29 37 39 48 54 41 54 -4 0 3 8 14 19 12 10 22 23 22 30
0 6 5 11 11 11 5 0 7 5 4 10 -3 6 1 10 9 10 9 0 16 5 16 10 0 6 12 10 28 10
20 0 23 -3 12 -9 -8 -6 -18 -7 -24 -4 -5 3 -6 1 -2 -6 4 -6 12 -9 17 -6 5 3 6
-1 3 -9 -3 -9 -10 -13 -15 -10 -5 3 -6 -2 -3 -10 3 -9 1 -16 -5 -16 -9 0 -9
-5 -1 -20 6 -11 7 -20 3 -19 -20 3 -27 -2 -13 -11 10 -6 11 -10 3 -10 -7 0
-13 -9 -13 -21 0 -12 -4 -17 -11 -13 -7 4 -9 -2 -7 -14 2 -12 -9 -34 -27 -53
-16 -18 -22 -28 -13 -21 14 11 16 10 11 -7 -3 -11 -10 -18 -16 -17 -7 2 -9 1
-4 -1 4 -3 7 -9 7 -14 0 -6 -4 -8 -9 -5 -11 7 -8 -20 3 -31 4 -4 6 -1 4 7 -1
8 4 14 12 15 8 0 15 7 15 15 1 8 7 14 14 12 7 -1 10 2 7 7 -4 5 2 14 11 20 10
6 14 11 8 11 -5 0 1 7 13 16 12 8 20 20 17 25 -4 5 -1 9 5 9 6 0 8 5 5 10 -3
6 -2 10 4 10 10 0 34 38 47 73 3 9 11 17 16 17 5 0 7 4 4 9 -3 5 1 12 10 15 8
3 12 10 9 16 -3 5 -1 10 4 10 6 0 11 7 11 15 0 8 4 15 9 15 5 0 24 30 42 68
18 37 37 69 41 70 4 2 8 10 8 18 0 8 5 14 11 14 5 0 7 5 4 10 -3 6 1 13 9 16
9 3 13 10 10 15 -3 5 0 9 6 9 6 0 8 5 5 10 -3 6 -2 10 3 10 8 0 35 46 36 63 1
4 6 11 11 15 13 9 45 70 45 87 0 7 7 16 16 19 8 3 12 10 9 16 -3 6 1 17 9 26
9 8 16 24 16 35 0 10 5 19 11 19 6 0 9 7 5 15 -3 8 -1 15 4 15 6 0 10 9 10 20
0 11 4 20 10 20 5 0 6 7 3 17 -5 12 -3 14 7 8 8 -5 11 -4 7 2 -4 6 1 28 10 49
27 62 37 92 32 97 -2 2 4 11 14 21 9 10 15 22 12 27 -4 5 -1 9 5 9 6 0 9 4 6
8 -3 5 2 21 9 36 8 16 12 32 9 37 -3 5 0 9 7 9 7 0 10 3 7 6 -4 3 0 17 7 31 8
15 12 30 9 35 -3 4 -2 14 3 21 4 6 9 18 10 25 2 6 4 18 6 25 1 6 7 18 11 26 7
11 6 12 -5 6 -12 -8 -12 -6 -1 8 8 9 11 21 8 26 -4 5 -2 12 3 16 5 3 8 14 6
25 -2 11 0 20 5 20 5 0 7 9 5 20 -2 11 0 22 5 25 5 3 7 14 5 25 -2 11 0 20 5
20 4 0 7 8 5 18 -1 9 0 22 3 27 4 6 7 19 9 30 1 11 4 36 7 55 3 19 7 47 8 63
1 15 5 27 9 27 4 0 5 14 4 30 -1 17 1 32 5 35 4 2 6 16 5 30 -2 14 2 25 8 25
8 0 7 3 -2 9 -10 6 -11 13 -2 29 6 11 11 38 11 60 0 21 3 41 6 45 4 3 8 37 10
74 2 37 7 104 9 148 3 44 5 91 5 105 -1 14 -1 30 0 35 0 6 2 40 4 76 2 36 6
71 10 77 3 6 0 13 -6 16 -10 4 -10 7 -1 12 8 3 9 15 3 34 -5 19 -5 32 2 36 6
4 5 10 -3 15 -12 8 -12 10 0 18 8 5 9 11 3 15 -5 3 -9 24 -8 46 1 23 -1 43 -5
46 -4 2 -4 18 1 34 5 17 6 28 2 26 -4 -2 -8 21 -10 52 -2 32 -4 77 -5 102 -2
25 -7 52 -11 59 -7 10 -5 12 4 6 10 -6 11 -4 4 6 -9 15 -13 41 -16 97 -1 17
-4 32 -7 32 -3 0 -7 15 -8 33 -4 44 -7 60 -17 76 -7 11 -6 12 5 6 11 -7 12 -6
3 6 -6 8 -12 21 -13 29 -3 35 -9 85 -11 85 -3 0 -11 39 -15 65 -1 14 -3 25 -4
25 -4 0 -12 40 -12 58 0 9 -4 17 -8 17 -4 0 -8 6 -9 13 -1 13 -6 33 -14 57
-22 66 -28 91 -24 99 3 5 -1 11 -9 15 -8 3 -12 12 -9 20 3 8 0 17 -5 21 -6 3
-9 11 -6 16 4 5 2 9 -4 9 -6 0 -8 6 -5 14 3 8 0 17 -5 21 -6 3 -9 11 -6 16 4
5 1 9 -6 9 -7 0 -10 3 -6 6 3 3 1 18 -5 33 -5 14 -12 35 -14 46 -4 20 -22 63
-55 128 -10 20 -16 37 -13 37 4 0 1 6 -5 14 -6 7 -12 25 -13 39 -1 14 -5 24
-9 21 -5 -3 -18 28 -21 56 -1 3 -8 10 -16 16 -8 6 -12 16 -8 23 4 6 0 14 -8
17 -9 3 -14 10 -11 14 3 5 -4 25 -15 44 -11 20 -16 36 -12 36 4 0 -4 10 -18
21 -14 11 -18 18 -10 14 8 -4 4 3 -10 15 -14 12 -19 19 -12 15 18 -9 15 5 -5
24 -10 9 -20 25 -21 36 -2 11 -10 27 -18 36 -8 9 -11 19 -7 22 3 4 1 7 -5 7
-7 0 -12 7 -12 15 0 8 -5 15 -10 15 -6 0 -10 8 -8 18 2 11 -2 16 -12 14 -8 -2
-12 0 -8 4 5 4 -3 22 -17 40 -14 18 -25 37 -25 43 0 6 -4 11 -10 11 -5 0 -10
7 -10 15 0 8 -4 15 -10 15 -5 0 -10 6 -10 14 0 7 -7 19 -15 26 -9 7 -23 28
-31 46 -9 19 -21 31 -27 27 -5 -3 -7 -1 -3 5 3 6 2 13 -4 17 -6 4 -8 11 -5 16
4 5 2 9 -3 9 -6 0 -19 16 -31 35 -21 36 -31 50 -66 88 -11 12 -26 34 -34 50
-8 15 -18 27 -23 27 -5 0 -7 4 -3 9 3 5 -4 12 -15 16 -11 3 -20 11 -20 16 0 5
-1 12 -2 17 -3 11 -102 102 -110 102 -5 0 -8 6 -8 13 0 7 -10 22 -22 33 -13
11 -32 32 -42 46 -11 15 -23 25 -28 22 -4 -3 -8 0 -8 6 0 16 -47 60 -56 52 -4
-4 -4 -2 0 5 3 6 -1 18 -9 25 -9 7 -46 41 -82 76 -36 34 -69 62 -72 62 -3 0
-20 13 -37 30 -18 16 -35 26 -38 23 -3 -4 -6 0 -6 9 0 8 -11 21 -25 28 -14 7
-25 17 -25 22 0 4 -6 8 -12 8 -7 0 -33 18 -57 40 -25 22 -51 40 -58 40 -8 0
-11 5 -8 10 3 6 -1 10 -10 10 -9 0 -14 4 -11 8 2 4 -5 9 -16 9 -11 1 -28 10
-38 20 -26 27 -69 63 -76 63 -3 0 -23 14 -44 30 -21 17 -43 30 -49 30 -6 0
-11 5 -11 11 0 5 -4 7 -10 4 -5 -3 -10 -3 -10 2 0 8 -54 36 -65 33 -4 -1 -14
7 -23 17 -9 10 -24 19 -32 21 -8 2 -18 9 -22 15 -4 7 -8 8 -8 2 0 -6 -3 -6 -8
1 -4 5 -24 18 -44 27 -21 10 -38 22 -38 28 0 6 -4 8 -9 5 -5 -3 -14 1 -21 10
-7 8 -19 13 -27 10 -7 -3 -13 -2 -13 3 0 5 -15 14 -32 21 -18 8 -42 20 -52 29
-11 9 -16 10 -12 4 5 -9 2 -11 -8 -7 -9 3 -16 10 -16 15 0 4 -7 6 -15 3 -8 -4
-15 -1 -15 4 0 10 -30 25 -55 28 -24 3 -44 17 -38 28 4 8 3 8 -6 0 -9 -9 -24
-6 -58 12 -26 13 -50 21 -55 18 -4 -3 -8 -1 -8 4 0 10 -37 25 -54 23 -4 -1
-14 4 -22 10 -8 6 -14 8 -14 3 0 -5 -4 -4 -8 3 -4 6 -21 13 -37 15 -17 2 -33
7 -36 11 -3 4 -16 9 -27 10 -12 1 -22 5 -22 10 0 4 -4 5 -10 2 -5 -3 -10 -1
-10 6 0 7 -3 10 -6 7 -3 -3 -35 5 -71 18 -36 13 -69 21 -74 18 -5 -3 -9 0 -9
6 0 6 -4 9 -9 5 -5 -3 -12 -1 -16 5 -4 6 -11 7 -17 4 -8 -5 -9 -1 -4 11 5 13
3 15 -6 8 -14 -11 -95 8 -90 21 2 4 0 11 -4 14 -4 4 -4 1 0 -5 5 -9 0 -13 -13
-13 -12 0 -21 5 -21 10 0 6 -11 10 -25 10 -14 0 -25 5 -25 11 0 8 -6 7 -17 -2
-14 -12 -15 -12 -9 0 7 10 3 12 -14 6 -14 -5 -20 -3 -16 3 4 6 -2 8 -16 4 -12
-3 -19 -1 -15 5 3 5 -7 10 -24 11 -70 5 -79 6 -79 14 0 4 -6 5 -14 2 -8 -3
-17 0 -21 5 -3 6 -11 9 -16 6 -5 -4 -9 0 -9 7 0 9 -3 9 -10 -2 -5 -8 -10 -10
-10 -4 0 7 -9 14 -20 17 -12 3 -18 1 -14 -5 4 -7 0 -7 -12 -1 -11 5 -41 9 -69
7 -27 -1 -56 3 -62 8 -7 6 -13 7 -13 3 0 -4 -6 -2 -13 4 -8 6 -16 9 -18 6 -4
-4 -3 44 1 55 1 3 2 8 1 12 0 4 6 19 14 34 8 15 12 31 9 36 -3 4 -1 8 5 8 5 0
13 10 17 23 9 30 65 117 76 117 4 0 8 7 8 16 0 8 5 12 10 9 6 -3 10 -2 10 3 0
9 8 11 54 15 13 1 22 5 19 10 -2 4 3 8 11 8 27 2 30 4 55 21 15 11 25 29 27
50 4 30 -2 40 -41 76 -25 23 -50 42 -55 42 -6 0 -10 5 -10 10 0 6 -7 10 -15
10 -8 0 -15 4 -15 9 0 10 -114 67 -145 73 -11 1 -22 6 -25 9 -3 4 -23 10 -45
14 -48 8 -70 13 -70 15 0 1 -11 3 -25 4 -14 0 -31 5 -37 9 -8 5 -13 3 -13 -4
0 -8 -4 -8 -12 -2 -12 9 -46 12 -158 17 -19 1 -51 -1 -70 -4z m4022 -4523 c3
4 3 2 2 -4 -2 -7 1 -13 7 -13 6 0 9 -5 7 -11 -2 -6 -7 -10 -12 -9 -5 1 -13 -4
-18 -12 -8 -10 -9 -9 -5 3 3 9 -1 16 -8 16 -10 0 -11 -5 -4 -18 12 -23 12 -32
-1 -24 -5 3 -7 0 -4 -8 3 -8 1 -18 -5 -22 -16 -9 6 -45 27 -44 14 0 14 2 -3 9
-11 5 -15 9 -10 9 6 1 4 5 -4 10 -7 5 -9 11 -4 14 5 3 22 -5 39 -19 16 -14 24
-23 18 -20 -12 6 -29 -23 -19 -32 3 -3 5 0 5 6 0 7 3 12 8 12 4 0 7 -15 6 -32
0 -18 5 -39 10 -47 9 -12 7 -13 -6 -8 -10 3 -20 2 -23 -4 -4 -5 -3 -9 2 -8 4
1 15 1 23 0 13 -1 13 -2 0 -11 -9 -6 -10 -10 -3 -10 6 0 11 -9 10 -19 0 -11
-6 -17 -12 -13 -5 3 -4 -2 4 -11 11 -14 11 -17 0 -17 -9 0 -10 -3 -3 -8 16
-11 18 -154 2 -164 -9 -5 -7 -8 7 -8 17 0 17 -2 5 -10 -8 -5 -11 -10 -6 -10 5
0 1 -9 -9 -20 -17 -19 -17 -20 -2 -14 15 5 16 3 8 -19 -5 -14 -7 -28 -4 -31 4
-3 1 -6 -7 -6 -10 0 -10 -3 0 -15 9 -11 10 -15 1 -15 -8 0 -10 -8 -6 -20 4
-13 2 -21 -7 -22 -14 -1 -30 -5 -38 -8 -22 -8 -40 -7 -37 3 3 7 9 11 14 10 5
-1 10 4 10 12 0 8 -5 11 -11 7 -6 -3 -17 -7 -25 -9 -10 -1 -11 1 -3 9 9 9 8
16 -1 27 -10 12 -9 14 7 8 16 -6 17 -5 7 7 -7 8 -11 36 -10 63 1 27 -1 54 -4
60 -4 7 -3 14 2 17 4 3 8 29 8 59 -1 29 2 58 7 65 4 7 3 12 -2 12 -5 0 -7 12
-5 28 2 15 4 46 3 70 0 24 4 41 8 38 5 -3 9 1 9 9 0 8 -4 12 -9 9 -4 -3 -8 0
-8 5 0 6 6 11 13 12 9 0 9 2 -1 6 -6 2 -10 9 -6 14 10 17 13 49 3 49 -5 0 -9
5 -9 11 0 5 5 7 10 4 14 -9 12 9 -2 24 -11 10 -10 12 1 9 7 -2 15 5 16 15 2 9
-2 17 -8 17 -8 0 -7 3 2 9 9 6 10 10 2 16 -9 5 -9 10 0 21 10 13 14 12 29 -1
10 -9 20 -13 22 -8z m35 -72 c5 -4 2 -5 -4 -1 -7 4 -13 2 -13 -3 0 -6 -5 -11
-11 -11 -5 0 -7 5 -3 12 5 7 3 8 -6 3 -10 -6 -7 -12 11 -26 27 -21 13 -26 -15
-6 -22 16 -11 48 15 44 10 -2 22 -7 26 -12z m-61 -651 c-4 -10 -2 -13 7 -7 21
13 41 13 28 0 -16 -16 -51 -19 -51 -4 0 13 9 27 18 27 2 0 1 -7 -2 -16z m14
-44 c0 -5 -2 -10 -4 -10 -3 0 -8 5 -11 10 -3 6 -1 10 4 10 6 0 11 -4 11 -10z
m-4217 -4253 c16 -11 16 -14 2 -35 -9 -12 -22 -22 -28 -21 -9 0 -9 2 1 6 13 5
17 24 5 22 -17 -3 -24 2 -18 11 5 8 11 7 21 -1 19 -16 18 -4 -2 15 -18 19 -5
21 19 3z m-11 -82 c0 -5 -5 -10 -11 -11 -8 -2 -7 -1 0 3 8 4 7 8 -2 15 -11 8
-11 9 -1 6 8 -2 14 -8 14 -13z"/>
<path d="M9006 5411 c-3 -5 1 -14 9 -21 8 -7 15 -9 15 -5 0 4 8 1 18 -6 9 -7
6 -1 -7 14 -27 30 -28 30 -35 18z"/>
<path d="M9000 5255 c0 -5 5 -17 10 -25 5 -8 10 -10 10 -5 0 6 -5 17 -10 25
-5 8 -10 11 -10 5z"/>
<path d="M9035 4730 c-3 -5 -1 -10 4 -10 6 0 11 5 11 10 0 6 -2 10 -4 10 -3 0
-8 -4 -11 -10z"/>
<path d="M5890 9512 c0 -4 23 -15 50 -25 28 -10 50 -22 50 -28 0 -6 4 -8 9 -5
5 3 14 -1 21 -9 7 -8 19 -15 27 -15 7 0 16 -7 20 -16 3 -8 11 -13 18 -11 6 3
17 -4 23 -14 7 -10 18 -19 25 -19 7 0 19 -9 27 -19 7 -11 17 -18 21 -16 4 3 9
-2 13 -10 3 -8 12 -15 21 -15 8 0 15 -4 15 -10 0 -5 5 -10 10 -10 6 0 19 -8
29 -17 38 -35 49 -42 55 -36 3 4 6 -1 6 -10 0 -10 8 -17 19 -17 10 0 30 -11
44 -24 14 -13 28 -21 31 -18 3 3 6 0 6 -6 0 -16 46 -60 67 -64 10 -2 17 -11
15 -19 -2 -8 0 -11 4 -7 4 4 14 2 22 -5 13 -9 14 -9 8 0 -5 9 -2 11 8 7 9 -3
16 -10 16 -15 0 -5 7 -9 15 -9 8 0 15 -5 15 -11 0 -6 6 -9 14 -6 8 3 16 2 18
-3 2 -6 15 -11 31 -12 15 -1 27 -6 27 -11 0 -4 5 -5 10 -2 6 3 10 1 10 -5 0
-6 4 -9 8 -6 5 3 20 -1 35 -9 15 -8 27 -11 27 -7 0 4 5 -1 11 -10 5 -10 17
-18 24 -18 8 0 15 -5 15 -11 0 -5 5 -7 10 -4 6 3 10 1 10 -5 0 -14 25 -40 39
-40 6 0 11 5 11 11 0 5 -4 8 -9 4 -6 -3 -15 4 -21 16 -16 29 -37 54 -102 121
-32 33 -58 64 -58 70 0 6 -3 8 -7 5 -3 -4 -19 9 -36 28 -16 19 -33 35 -38 35
-4 0 -20 11 -35 25 -15 14 -36 25 -46 25 -11 0 -17 4 -14 9 3 5 -12 16 -33 25
-22 8 -42 20 -46 26 -3 6 -11 8 -16 5 -5 -4 -9 -1 -9 6 0 7 -3 10 -6 6 -4 -3
-25 4 -48 17 -22 12 -44 24 -48 25 -4 1 -28 10 -54 21 -25 11 -51 20 -58 20
-7 0 -16 4 -21 9 -17 16 -126 61 -118 48 4 -6 -6 -2 -21 11 -16 12 -32 19 -37
16 -5 -3 -9 0 -9 7 0 7 -3 10 -6 6 -4 -3 -19 0 -35 9 -16 8 -29 12 -29 10 0
-3 -11 -1 -25 4 -14 5 -25 6 -25 2z"/>
<path d="M3530 9042 c0 -7 -6 -12 -12 -11 -23 4 -128 -13 -128 -21 0 -4 -13
-6 -30 -4 -16 2 -30 0 -30 -4 0 -4 -21 -8 -47 -9 -55 -2 -80 -6 -89 -16 -4 -4
-18 -4 -32 0 -14 3 -23 2 -19 -3 3 -5 -7 -9 -21 -8 -15 1 -31 -1 -37 -5 -5 -3
-12 -6 -15 -7 -3 0 -18 -6 -35 -13 -16 -7 -38 -13 -47 -14 -9 -1 -15 -4 -12
-8 2 -4 -12 -13 -31 -20 -19 -7 -35 -17 -35 -21 0 -4 -7 -8 -15 -8 -8 0 -15
-5 -15 -12 0 -6 -3 -9 -6 -5 -3 3 -16 -4 -29 -16 -12 -12 -32 -28 -43 -36 -12
-8 -18 -19 -15 -24 3 -6 1 -7 -4 -4 -6 4 -26 -9 -44 -28 -19 -19 -37 -35 -41
-35 -11 0 -122 -72 -130 -84 -4 -6 -8 -8 -8 -4 0 9 -30 -7 -97 -52 -29 -19
-50 -36 -48 -38 3 -3 11 0 18 6 8 7 18 8 22 4 5 -4 5 -2 2 4 -7 12 38 38 66
37 9 0 17 3 17 7 0 5 11 7 25 5 14 -1 25 1 25 4 0 10 62 31 71 25 5 -3 9 0 9
6 0 7 7 10 15 6 8 -3 15 -2 15 3 0 4 6 8 13 8 6 0 26 4 42 8 17 3 40 8 53 11
12 2 34 6 50 9 15 3 33 6 40 7 6 1 12 5 12 10 0 4 5 8 11 8 5 0 7 -6 3 -12 -4
-7 2 -5 13 4 11 10 32 19 46 20 15 1 27 6 27 10 0 4 8 8 18 8 10 0 24 6 31 13
8 6 11 7 8 1 -4 -6 13 -2 36 9 23 12 44 25 45 29 2 4 12 8 23 8 11 0 22 7 25
15 4 8 10 12 15 9 5 -3 9 0 9 6 0 6 4 9 9 6 5 -3 11 1 15 9 3 8 15 15 26 15
13 0 18 4 15 11 -4 6 2 13 13 16 11 3 23 11 26 19 3 8 12 14 21 14 8 0 15 5
15 11 0 5 4 8 9 5 5 -3 12 1 15 10 3 8 10 13 15 10 5 -3 12 1 15 10 4 9 9 14
12 11 4 -3 12 -1 20 6 40 36 44 38 44 25 1 -8 6 -6 15 6 7 10 18 15 24 12 14
-9 21 7 10 24 -6 11 -9 12 -9 2z"/>
<path d="M7660 8713 c8 -12 18 -19 22 -17 4 3 8 -2 8 -11 0 -9 7 -23 15 -32 8
-8 13 -18 10 -23 -3 -4 2 -11 11 -14 8 -3 12 -10 9 -16 -3 -5 -2 -10 2 -10 5
0 20 -21 33 -47 14 -26 30 -53 37 -60 6 -7 15 -22 18 -33 3 -11 11 -20 16 -20
5 0 9 -6 9 -13 0 -7 9 -23 20 -35 12 -12 18 -22 15 -22 -3 0 2 -15 12 -32 9
-18 16 -36 15 -40 -1 -5 2 -8 7 -8 5 0 14 -13 21 -30 7 -16 16 -30 21 -30 5 0
9 -8 9 -18 0 -10 9 -24 20 -32 11 -8 20 -19 20 -25 0 -6 9 -17 19 -25 11 -7
18 -17 15 -22 -3 -4 3 -8 12 -8 10 0 14 -3 11 -6 -8 -8 36 -44 55 -44 8 0 9
-3 3 -8 -6 -4 -2 -15 12 -29 13 -12 23 -20 23 -16 0 3 8 -4 19 -15 10 -12 24
-22 30 -22 7 0 10 -4 7 -9 -3 -4 2 -8 12 -8 46 0 63 -4 57 -13 -3 -5 3 -10 15
-10 12 0 18 -4 15 -10 -3 -5 1 -10 9 -10 8 0 18 -9 21 -20 7 -21 20 -26 30
-11 3 5 -2 16 -10 24 -8 9 -16 32 -17 51 -2 20 -6 36 -10 36 -5 0 -8 9 -8 19
0 11 -6 22 -12 24 -10 4 -10 6 0 6 10 1 9 8 -3 31 -8 16 -15 32 -15 35 0 3 0
6 -1 8 -2 6 -10 54 -11 70 -1 9 -6 17 -10 17 -4 0 -8 7 -8 15 0 8 -5 15 -11
15 -5 0 -8 4 -5 9 3 5 -3 20 -14 33 -11 14 -17 28 -15 32 3 3 2 4 -1 1 -4 -2
-15 5 -25 17 -11 11 -19 18 -19 14 0 -7 -6 -3 -53 39 -15 14 -35 25 -42 25 -8
0 -20 9 -27 20 -7 11 -21 20 -30 20 -10 0 -18 5 -18 11 0 5 -4 7 -10 4 -5 -3
-10 1 -10 9 0 8 -9 18 -21 21 -12 4 -29 14 -39 23 -9 10 -40 33 -68 52 -28 19
-51 39 -52 43 0 5 -4 5 -10 2 -5 -3 -10 1 -10 9 0 9 -7 16 -16 16 -8 0 -12 5
-9 10 3 6 -1 10 -9 10 -9 0 -16 4 -16 9 0 10 -46 61 -74 82 -18 13 -18 13 -6
-8z"/>
<path d="M1986 7924 c-9 -8 -16 -12 -16 -8 0 4 -10 -1 -22 -12 -14 -13 -19
-14 -14 -4 4 8 -2 4 -13 -9 -12 -13 -21 -19 -21 -15 0 5 -5 1 -11 -8 -5 -10
-16 -18 -24 -18 -8 0 -21 -10 -29 -22 -9 -12 -16 -19 -16 -14 0 5 -9 -1 -20
-14 -11 -13 -20 -19 -20 -14 0 5 -4 4 -8 -1 -9 -15 -72 -58 -72 -51 0 7 -21
-11 -68 -57 -51 -49 -62 -63 -62 -75 0 -5 -4 -12 -8 -14 -11 -4 -104 -138 -96
-138 3 0 -1 -7 -8 -15 -23 -26 -33 -40 -36 -55 -2 -8 -8 -17 -13 -18 -5 -2 -7
-8 -3 -13 3 -5 0 -9 -5 -9 -6 0 -11 -7 -11 -15 0 -9 -7 -18 -15 -21 -8 -4 -13
-10 -10 -14 3 -5 1 -11 -5 -15 -6 -4 -8 -11 -5 -16 4 -5 1 -9 -5 -9 -6 0 -9
-4 -5 -9 3 -6 -3 -14 -12 -20 -10 -6 -14 -11 -9 -11 5 0 3 -7 -4 -15 -7 -8
-10 -15 -6 -15 4 0 0 -10 -9 -23 -8 -13 -12 -27 -8 -30 3 -4 1 -7 -6 -7 -7 0
-9 -4 -6 -10 3 -5 2 -10 -3 -10 -5 0 -9 -6 -9 -12 -1 -16 -26 -81 -33 -88 -3
-3 -5 -12 -5 -20 1 -8 -2 -20 -6 -25 -4 -6 -12 -23 -18 -37 -8 -21 -6 -29 6
-40 14 -11 16 -10 11 10 -4 12 -3 20 0 18 9 -5 26 15 30 34 2 8 11 22 22 31
11 9 16 19 13 23 -3 3 2 8 11 12 9 3 16 12 16 20 0 7 8 18 18 23 9 6 13 11 9
11 -4 0 7 14 25 32 18 18 32 36 31 40 -2 4 3 8 10 8 6 0 25 18 41 40 17 22 36
40 43 40 7 0 13 6 13 13 0 16 86 98 94 89 4 -3 4 1 0 11 -5 13 -1 17 17 17 13
0 20 -4 14 -8 -5 -4 -12 -18 -13 -32 -2 -14 -10 -29 -18 -33 -8 -5 -12 -13 -8
-18 3 -5 -2 -21 -11 -35 -9 -13 -13 -29 -10 -34 3 -5 1 -11 -5 -15 -6 -4 -8
-11 -5 -16 4 -5 1 -9 -4 -9 -6 0 -11 -9 -11 -21 0 -13 -4 -18 -12 -13 -7 4 -8
3 -4 -5 4 -6 3 -18 -4 -26 -7 -8 -7 -15 -1 -19 5 -4 12 -2 16 4 3 5 3 10 -2
10 -4 0 0 5 10 11 9 6 15 14 12 20 -4 5 -1 9 5 9 6 0 9 4 5 9 -3 5 2 17 11 25
8 9 12 16 8 16 -3 0 0 8 7 17 10 11 10 14 2 9 -7 -4 -13 -3 -13 2 0 5 11 15
25 22 14 7 23 16 20 18 -3 3 1 12 8 20 10 13 9 15 -3 8 -9 -4 -8 -1 3 7 9 8
17 22 17 31 0 9 5 16 11 16 5 0 7 5 4 10 -3 6 -2 10 4 10 6 0 8 7 5 15 -4 8
-1 15 6 15 6 0 8 5 5 10 -3 6 -1 10 5 10 7 0 10 6 7 14 -3 8 1 17 10 20 8 4
13 13 10 20 -3 8 1 17 9 20 9 3 13 10 10 15 -4 5 -3 11 1 13 10 4 47 80 45 91
-1 4 2 7 7 7 8 0 24 37 22 53 -1 4 4 7 11 7 6 0 8 3 5 7 -4 3 0 17 8 30 9 13
13 23 9 23 -4 0 -1 7 6 15 6 8 9 19 5 25 -3 5 1 13 9 16 9 3 16 11 16 16 0 5
9 22 20 38 11 15 16 30 13 34 -4 4 0 4 9 1 11 -4 18 0 23 14 3 12 10 21 15 21
4 0 15 11 24 25 19 28 15 33 -8 9z"/>
<path d="M8370 7840 c0 -5 4 -10 10 -10 5 0 7 -6 4 -13 -3 -8 2 -20 11 -27 8
-7 15 -19 15 -26 0 -8 4 -14 8 -14 5 0 15 -11 22 -25 7 -14 15 -23 18 -21 5 6
-39 80 -50 84 -5 2 -6 8 -3 12 6 10 -16 50 -27 50 -5 0 -8 -4 -8 -10z"/>
<path d="M8810 7676 c0 -16 6 -26 15 -26 8 0 15 5 15 11 0 5 -4 7 -10 4 -5 -3
-7 0 -4 8 3 8 1 18 -5 22 -7 4 -11 -4 -11 -19z"/>
<path d="M8825 7624 c9 -9 14 -21 12 -28 -2 -6 3 -17 11 -25 10 -11 11 -16 3
-19 -9 -3 -9 -7 0 -18 6 -8 8 -14 5 -14 -4 0 -2 -9 4 -20 8 -15 8 -20 -2 -20
-10 0 -10 -3 1 -9 8 -5 11 -16 8 -24 -3 -9 1 -21 9 -28 10 -8 11 -15 4 -24 -8
-9 -8 -15 0 -20 6 -4 10 -21 10 -38 -1 -30 1 -50 15 -187 11 -98 11 -105 0
-119 -7 -11 -7 -13 3 -7 9 6 11 0 7 -23 -3 -18 -1 -31 5 -31 7 0 8 -6 1 -19
-7 -13 -6 -24 3 -37 8 -10 11 -25 8 -33 -4 -10 -1 -12 8 -6 10 6 12 4 7 -8 -3
-10 -2 -17 4 -17 6 0 7 -4 4 -10 -3 -5 -2 -10 3 -10 5 0 15 -18 22 -40 7 -22
16 -40 19 -40 4 0 7 -10 8 -22 1 -11 7 -24 14 -28 6 -4 8 -13 5 -19 -4 -6 -3
-11 3 -11 6 0 13 -11 17 -25 3 -14 10 -25 16 -25 5 0 7 -4 4 -8 -3 -5 2 -21
10 -36 7 -16 14 -37 14 -47 0 -11 5 -19 10 -19 6 0 10 -11 10 -25 0 -14 4 -25
8 -25 7 0 11 -16 14 -57 1 -7 5 -13 10 -13 5 0 6 -4 3 -10 -3 -5 -2 -10 4 -10
5 0 8 -12 5 -26 -3 -18 -1 -23 7 -18 9 5 10 2 6 -9 -3 -9 -2 -19 4 -22 5 -4 6
-11 3 -17 -4 -6 -2 -8 4 -5 5 4 9 13 8 20 -6 27 -18 73 -23 87 -11 29 -12 44
-1 63 5 11 6 17 1 14 -5 -3 -9 32 -9 84 1 49 5 89 10 89 5 0 4 6 -2 13 -7 8
-7 18 -2 27 5 8 5 21 0 30 -6 11 -5 21 1 27 8 8 7 13 0 17 -8 5 -8 13 -1 27 8
13 7 19 0 19 -7 0 -8 6 -1 19 6 10 7 21 4 25 -4 3 -8 34 -9 68 -2 34 -6 69
-10 77 -3 9 -8 31 -10 50 -2 19 -7 37 -11 40 -4 3 -9 12 -11 19 -5 27 -45 102
-54 102 -5 0 -7 4 -4 9 3 5 -1 12 -10 15 -9 3 -14 12 -12 18 3 7 0 18 -6 25
-30 34 -36 43 -36 56 0 8 -7 20 -15 27 -8 7 -12 16 -9 21 3 5 0 9 -5 9 -6 0
-11 9 -11 20 0 11 -5 20 -11 20 -5 0 -7 5 -4 10 3 6 1 10 -5 10 -6 0 -9 4 -6
9 3 5 -1 14 -10 21 -8 7 -13 19 -10 27 3 7 1 13 -5 13 -6 0 -9 7 -5 15 3 8 1
15 -3 15 -5 0 -14 14 -20 30 -5 17 -7 30 -4 30 3 0 -1 8 -10 18 -10 10 -14 22
-10 25 3 4 -4 7 -16 7 -21 0 -21 -1 -6 -16z"/>
<path d="M1185 6858 c-4 -13 -6 -29 -5 -37 1 -7 -2 -11 -7 -8 -5 3 -9 -3 -9
-14 0 -10 3 -19 6 -19 9 0 30 52 24 61 -3 5 0 9 5 9 6 0 11 7 11 15 0 23 -17
18 -25 -7z"/>
<path d="M1029 5961 c-3 -21 -4 -26 -12 -38 -5 -8 -3 -13 7 -13 8 0 13 8 12
18 -2 9 1 20 6 23 6 4 6 9 -1 13 -6 4 -12 2 -12 -3z"/>
<path d="M1004 5875 c-3 -14 -10 -25 -15 -25 -4 0 -6 -9 -4 -20 2 -11 -1 -20
-6 -20 -6 0 -7 -4 -4 -10 3 -5 1 -10 -6 -10 -7 0 -10 -3 -7 -6 4 -3 0 -21 -8
-40 -8 -19 -12 -34 -10 -34 3 0 -2 -16 -10 -35 -8 -19 -12 -35 -8 -35 3 0 -5
-14 -17 -32 -13 -17 -16 -28 -8 -23 11 7 12 6 3 -6 -7 -8 -18 -33 -25 -56 -6
-24 -16 -43 -20 -43 -4 0 -6 -9 -4 -20 2 -11 -1 -20 -6 -20 -6 0 -8 -4 -4 -9
3 -5 1 -12 -4 -15 -5 -4 -8 -14 -7 -24 2 -9 -1 -19 -5 -22 -5 -3 -10 -25 -11
-48 -2 -23 -6 -42 -9 -42 -3 0 -5 -11 -4 -25 2 -14 -1 -25 -7 -25 -6 0 -5 -6
2 -15 7 -8 8 -15 4 -15 -5 0 -10 -34 -11 -75 -1 -51 2 -73 9 -69 7 5 8 2 2 -7
-11 -17 -12 -79 -1 -79 4 0 3 -9 -3 -20 -8 -15 -8 -20 1 -20 8 0 9 -4 0 -13
-6 -8 -8 -17 -4 -21 4 -4 9 -33 11 -64 2 -31 8 -58 13 -60 5 -2 5 -11 -1 -22
-6 -11 -6 -20 -1 -22 6 -2 12 -16 15 -33 2 -16 5 -32 6 -35 1 -3 2 -8 1 -12 0
-5 4 -8 10 -8 6 0 9 7 6 15 -4 8 -2 17 3 20 4 3 7 16 5 30 -1 14 1 25 5 25 4
0 7 6 7 13 0 6 4 28 8 47 4 19 9 44 10 55 2 11 4 22 6 25 5 11 7 26 8 63 0 21
4 36 9 34 4 -3 8 11 10 31 1 20 8 40 15 44 9 6 8 8 -3 8 -9 0 -11 3 -5 8 10 7
12 14 18 50 1 9 6 23 10 30 5 6 5 17 2 22 -3 6 -1 10 5 10 6 0 9 3 6 8 -2 4 2
15 9 26 12 16 13 12 11 -29 -1 -25 2 -48 6 -51 5 -3 3 -13 -4 -22 -10 -12 -10
-14 0 -8 7 4 12 1 12 -8 0 -9 -6 -16 -12 -16 -10 0 -10 -2 -1 -8 7 -4 14 -32
17 -61 3 -30 9 -63 12 -75 4 -11 8 -30 8 -41 1 -11 8 -29 15 -40 9 -15 11 -16
7 -2 -3 10 0 17 7 17 8 0 6 4 -3 10 -8 5 -11 10 -6 10 5 0 3 7 -4 15 -10 12
-10 15 1 15 9 1 8 5 -5 15 -11 8 -15 15 -10 15 6 0 11 7 11 15 0 8 -3 15 -7
15 -3 0 -6 9 -7 20 -1 13 2 18 10 13 8 -5 8 -2 -1 9 -7 9 -13 36 -15 62 -1 25
-6 46 -10 46 -4 0 -3 9 3 19 7 14 7 22 -1 27 -6 3 -9 14 -6 24 2 10 1 24 -4
31 -4 7 -5 17 -2 22 7 12 7 106 0 113 -3 3 -2 17 3 30 5 13 6 24 2 24 -9 0 -6
364 3 388 11 26 13 102 4 102 -5 0 -11 -11 -15 -25z"/>
<path d="M9525 5851 c4 -13 3 -21 -2 -18 -5 3 -9 -14 -8 -39 0 -24 -4 -44 -8
-44 -5 0 -7 -7 -4 -15 4 -8 2 -17 -4 -21 -6 -4 -6 -11 2 -20 6 -8 7 -14 2 -14
-5 0 -9 -10 -10 -22 0 -20 -8 -68 -17 -118 -2 -8 -7 -23 -11 -32 -4 -10 -8
-29 -9 -43 0 -14 -5 -25 -10 -25 -4 0 -6 -7 -2 -15 3 -8 2 -15 -3 -15 -8 0
-19 -30 -28 -75 -2 -10 -8 -22 -15 -26 -6 -4 -7 -12 -4 -18 4 -6 3 -11 -2 -11
-5 0 -8 -10 -7 -22 1 -13 -2 -25 -6 -28 -4 -3 -9 -26 -11 -50 -2 -25 -7 -50
-11 -57 -4 -6 -3 -14 3 -18 7 -4 7 -12 0 -25 -6 -10 -6 -21 -1 -24 4 -3 9 -29
9 -58 0 -29 1 -56 2 -60 5 -21 3 -65 -4 -76 -4 -7 -4 -12 1 -12 4 0 8 -61 8
-135 1 -74 -2 -135 -6 -135 -4 0 -6 -11 -4 -25 1 -14 -2 -28 -6 -31 -11 -7
-12 -24 -1 -24 5 0 14 11 20 25 8 17 8 25 1 25 -6 0 -7 5 -4 10 4 6 10 8 14 5
5 -2 7 7 5 20 -1 14 2 27 7 31 5 3 7 10 4 15 -4 5 -2 9 4 9 5 0 8 8 7 17 -2 9
3 28 10 41 7 14 11 33 9 43 -3 13 0 17 7 13 7 -5 9 -1 5 9 -3 10 -2 17 4 17 6
0 7 5 4 11 -4 5 1 20 12 31 10 12 12 18 6 14 -17 -9 -16 -5 2 30 8 16 15 39
15 51 0 12 5 25 10 28 6 4 8 11 5 16 -4 5 -2 9 4 9 5 0 8 9 6 20 -2 11 0 20 6
20 5 0 8 3 8 8 -1 4 -1 9 1 12 1 3 4 16 6 30 2 13 8 27 12 30 10 8 21 55 26
126 2 23 7 48 11 53 3 6 1 11 -5 11 -7 0 -8 6 -1 18 5 10 6 24 1 31 -4 8 -7
27 -6 42 1 16 0 29 -3 29 -3 0 -6 25 -6 55 0 30 -3 55 -7 55 -4 0 -7 8 -7 18
1 9 -2 37 -6 62 -3 25 -8 96 -9 158 -2 62 -7 116 -11 120 -4 4 -4 -4 0 -17z"/>
<path d="M9343 4476 c3 -8 2 -16 -3 -18 -5 -2 -10 -15 -12 -29 -2 -15 -9 -33
-16 -41 -6 -8 -9 -18 -5 -21 3 -4 0 -13 -6 -21 -9 -11 -9 -16 0 -22 7 -4 9 -3
5 4 -3 6 -1 14 5 17 5 4 8 13 5 21 -3 7 2 17 11 22 8 5 17 20 19 33 1 13 5 34
8 47 3 12 0 22 -6 22 -5 0 -8 -6 -5 -14z"/>
<path d="M9475 4040 c-3 -5 -1 -10 4 -10 6 0 11 5 11 10 0 6 -2 10 -4 10 -3 0
-8 -4 -11 -10z"/>
<path d="M9460 4010 c0 -5 0 -12 0 -15 1 -12 -26 -33 -34 -27 -5 3 -6 0 -2 -6
4 -7 2 -12 -3 -12 -6 0 -11 -7 -11 -15 0 -9 -10 -26 -22 -39 -35 -35 -58 -65
-58 -74 0 -4 -18 -24 -40 -44 -22 -21 -38 -38 -35 -38 4 0 -26 -37 -71 -86
-12 -12 -19 -25 -17 -28 3 -3 -2 -8 -11 -12 -9 -3 -16 -12 -16 -20 0 -8 -4
-14 -10 -14 -5 0 -10 -7 -10 -15 0 -8 -5 -15 -11 -15 -5 0 -8 -4 -5 -9 3 -5
-1 -12 -10 -15 -9 -4 -14 -9 -10 -13 3 -3 -2 -15 -11 -26 -13 -15 -14 -18 -3
-12 13 8 13 6 1 -8 -7 -9 -18 -14 -24 -10 -5 3 -8 2 -5 -3 8 -13 -37 -95 -47
-86 -5 4 -5 1 -1 -5 4 -7 -5 -37 -19 -68 -14 -31 -25 -62 -25 -70 0 -8 -5 -15
-10 -15 -6 0 -10 -6 -8 -12 1 -7 -5 -29 -15 -48 -9 -19 -23 -55 -32 -80 -9
-24 -21 -48 -28 -52 -9 -6 -9 -8 2 -8 10 0 11 -3 2 -14 -6 -8 -10 -20 -9 -27
2 -8 -2 -13 -9 -12 -7 2 -10 -4 -6 -12 4 -13 8 -13 22 -3 24 18 53 48 46 48
-3 0 3 8 13 18 9 11 20 17 25 15 4 -2 7 1 7 8 0 14 52 64 63 61 5 -1 6 2 3 7
-4 5 4 17 16 25 12 9 19 16 15 16 -4 0 7 14 25 30 17 17 27 30 22 30 -5 0 -1
5 9 11 9 6 15 14 12 20 -4 5 1 9 10 9 9 0 14 4 11 8 -3 5 3 18 13 29 10 11 30
41 43 66 14 26 29 43 34 39 5 -4 6 -3 1 2 -4 5 0 20 8 33 9 13 13 23 10 23 -4
0 1 7 9 16 9 8 16 23 16 32 0 10 7 28 16 40 8 12 12 22 8 22 -3 0 -1 7 6 15 7
8 9 15 5 15 -5 0 0 10 11 22 12 14 14 19 4 13 -12 -6 -13 -5 -2 6 6 7 12 21
12 31 0 10 5 18 11 18 6 0 8 9 4 21 -5 15 -4 19 4 15 12 -8 13 -5 15 35 1 14
9 34 18 43 10 9 15 23 12 31 -4 8 -2 15 2 15 10 0 34 69 34 95 0 8 5 15 12 15
6 0 8 3 5 7 -4 3 3 17 15 30 12 13 17 23 12 23 -5 0 -2 5 6 10 13 8 12 10 -2
10 -10 0 -18 -4 -18 -10z"/>
<path d="M1094 3663 c3 -27 9 -66 12 -88 4 -22 7 -52 8 -67 0 -16 3 -28 6 -28
4 0 6 -10 7 -22 0 -29 11 -122 19 -168 3 -19 6 -42 6 -50 0 -8 5 -21 11 -27 5
-7 7 -13 4 -13 -6 0 9 -69 24 -106 7 -16 13 -33 15 -39 1 -5 8 -23 15 -40 7
-16 12 -33 11 -37 -1 -5 4 -8 12 -8 9 0 12 -7 9 -20 -3 -11 0 -20 6 -20 6 0
11 -8 11 -18 0 -10 9 -28 20 -40 11 -12 20 -24 20 -27 -1 -28 2 -35 16 -35 8
0 12 -4 9 -10 -3 -5 -1 -10 4 -10 6 0 11 -5 11 -11 0 -5 -5 -7 -12 -3 -6 4 -3
-5 8 -19 10 -15 23 -27 27 -27 5 0 6 -4 2 -9 -3 -5 -1 -12 5 -16 5 -3 10 -15
10 -26 0 -10 4 -19 9 -19 5 0 12 -11 15 -25 4 -14 11 -25 17 -25 6 0 7 -5 3
-12 -4 -6 1 -17 11 -25 11 -7 15 -13 10 -13 -4 0 -1 -8 8 -17 15 -17 17 -22
17 -40 0 -5 4 -2 9 6 6 8 6 24 0 38 -6 15 -5 23 2 23 8 0 8 4 0 13 -6 8 -8 17
-5 20 3 3 2 12 -2 19 -4 7 -9 32 -10 56 -2 24 -8 50 -15 58 -7 9 -8 14 -1 14
11 0 10 13 -3 43 -4 10 -5 21 -1 24 3 3 1 12 -5 20 -9 10 -8 13 0 13 7 0 9 5
6 10 -11 18 -11 109 0 114 5 2 4 5 -3 5 -7 1 -10 6 -6 12 3 6 0 15 -7 20 -8 5
-9 9 -3 9 6 0 12 11 12 25 0 14 -6 25 -12 25 -6 0 -4 5 4 10 10 6 11 10 3 10
-7 0 -13 7 -13 15 0 9 -4 21 -10 28 -48 59 -59 75 -53 81 3 3 1 6 -5 6 -7 0
-12 7 -12 16 0 8 -4 12 -10 9 -5 -3 -10 0 -10 8 0 8 -11 26 -25 41 -14 15 -25
34 -25 42 0 7 -5 13 -12 12 -7 -2 -12 2 -13 7 0 6 -10 25 -23 42 -13 18 -20
37 -17 43 3 5 -1 10 -10 10 -9 0 -13 5 -10 10 3 6 0 10 -7 10 -11 0 -10 2 0 9
11 7 11 9 -2 14 -9 4 -16 18 -16 32 0 14 -5 25 -12 25 -6 0 -9 3 -5 6 3 4 0
22 -8 41 -8 19 -13 39 -10 43 3 4 -2 10 -10 14 -9 3 -12 12 -8 22 4 12 3 15
-5 10 -8 -5 -10 -2 -6 8 3 9 1 16 -5 16 -8 0 -10 -15 -7 -47z"/>
<path d="M8687 2570 c-9 -11 -13 -20 -9 -20 4 0 2 -4 -3 -8 -6 -4 -24 -27 -40
-52 -37 -55 -51 -71 -58 -64 -3 3 -8 -4 -12 -15 -3 -11 -15 -23 -26 -26 -11
-4 -18 -9 -15 -12 3 -3 -10 -19 -29 -36 -19 -16 -32 -35 -28 -40 3 -6 2 -7 -4
-4 -5 3 -15 -3 -23 -13 -8 -10 -17 -17 -21 -14 -4 2 -10 -5 -14 -15 -3 -11
-15 -23 -26 -26 -11 -4 -18 -9 -15 -13 3 -3 -3 -12 -14 -19 -11 -8 -17 -19
-14 -25 4 -7 2 -8 -4 -4 -6 4 -17 -2 -24 -14 -7 -11 -18 -20 -25 -20 -7 0 -13
-3 -13 -7 0 -13 -133 -148 -142 -145 -5 1 -7 -2 -3 -8 3 -5 -1 -13 -9 -16 -9
-3 -16 -12 -16 -20 0 -8 -4 -13 -8 -11 -4 1 -20 -11 -35 -27 -15 -16 -27 -26
-27 -22 0 7 -219 -211 -220 -219 -1 -9 -55 -60 -61 -58 -4 1 -6 -5 -5 -15 0
-9 -6 -17 -14 -17 -8 0 -15 -10 -16 -22 -1 -19 2 -20 22 -11 13 6 20 16 17 22
-4 6 1 5 10 -3 11 -9 17 -10 17 -2 0 6 11 16 25 21 14 5 25 14 25 20 0 5 7 10
15 10 7 0 19 8 24 18 6 9 11 13 11 8 0 -5 11 3 24 19 15 17 28 25 36 20 9 -6
11 -4 6 4 -5 8 0 14 13 18 11 3 18 9 15 14 -3 5 3 9 14 9 10 0 31 11 46 25 14
13 26 20 26 15 0 -6 8 -2 18 8 11 9 17 20 15 25 -3 4 -1 7 4 6 16 -4 63 13 58
22 -3 4 6 14 19 21 14 7 25 16 25 21 1 8 11 21 63 76 20 22 34 42 31 45 -4 3
-1 6 5 6 7 0 11 6 10 13 -2 6 2 11 9 10 6 -2 15 6 18 17 4 11 11 18 16 15 5
-4 9 1 9 10 0 10 5 13 12 9 8 -5 9 -2 5 10 -4 10 -3 15 3 11 6 -3 10 -1 10 5
0 7 7 9 16 6 9 -3 12 -2 9 5 -9 14 15 40 29 32 6 -3 8 -3 4 2 -4 4 1 15 10 24
11 10 12 12 2 6 -13 -9 -13 -8 -2 7 8 10 23 20 33 23 11 4 18 12 16 18 -2 6 5
18 15 27 10 8 20 25 23 38 5 30 15 43 25 37 5 -3 7 4 5 15 -2 11 1 20 6 20 6
0 7 5 4 10 -3 6 -1 10 6 10 7 0 9 3 6 7 -4 3 -3 11 3 17 10 14 111 206 107
206 -1 0 -10 -9 -20 -20z"/>
<path d="M8290 2460 c0 -5 5 -10 11 -10 5 0 7 5 4 10 -3 6 -8 10 -11 10 -2 0
-4 -4 -4 -10z"/>
<path d="M1906 2225 c4 -8 10 -15 16 -15 5 0 7 -4 3 -9 -3 -5 2 -17 11 -25 8
-9 12 -16 7 -16 -4 -1 2 -9 14 -19 12 -10 19 -21 16 -25 -3 -3 6 -18 20 -32
15 -15 25 -30 22 -33 -2 -4 5 -14 16 -22 33 -23 79 -68 79 -78 0 -5 9 -11 21
-14 12 -3 18 -10 14 -16 -3 -6 -2 -11 4 -11 14 0 66 -53 63 -64 -2 -5 4 -6 13
-2 9 3 18 -1 21 -9 4 -8 10 -13 14 -10 5 3 15 -1 23 -9 8 -8 17 -12 21 -9 3 4
6 2 6 -4 0 -15 34 -11 48 6 8 9 11 10 7 4 -3 -7 -1 -13 4 -13 14 0 14 17 0 25
-6 4 -8 13 -5 21 3 8 2 13 -2 13 -18 -3 -32 2 -32 11 0 13 -48 60 -62 60 -6 0
-9 3 -5 6 3 4 -11 18 -33 33 -48 32 -109 83 -165 138 -23 23 -45 40 -47 37 -3
-2 -11 7 -18 21 -7 14 -18 25 -23 25 -5 0 -18 11 -29 25 -21 27 -51 34 -42 10z"/>
<path d="M2393 1815 c0 -8 4 -12 9 -9 5 3 6 10 3 15 -9 13 -12 11 -12 -6z"/>
</g>
</svg>
