<?xml version="1.0" encoding="UTF-8"?>
<svg xmlns="http://www.w3.org/2000/svg" xmlns:xlink="http://www.w3.org/1999/xlink" width="240px" height="240px" viewBox="0 0 240 240" version="1.1">
<g id="surface1">
<path style=" stroke:none;fill-rule:nonzero;fill:rgb(0%,0%,0%);fill-opacity:1;" d="M 153.847656 30.921875 C 160.039062 36.605469 160.039062 36.605469 167.628906 41.691406 C 197.828125 62.875 222.046875 95.300781 232.726562 130.910156 C 232.726562 142.5 232.726562 142.5 229.089844 152.726562 C 216.25 164.519531 202.875 171.726562 187.046875 178.863281 C 180.964844 181.640625 180.964844 181.640625 174.757812 184.472656 C 156.9375 191.871094 143.269531 193.222656 123.863281 193.183594 C 119.480469 193.191406 115.097656 193.199219 110.582031 193.210938 C 99.882812 192.792969 90.382812 191.574219 80 189.089844 C 78.574219 192.390625 77.148438 195.691406 75.683594 199.089844 C 68.804688 211.421875 62.34375 217.417969 50.910156 225.453125 C 48.507812 224.253906 46.109375 223.054688 43.636719 221.816406 C 43.636719 218.21875 43.636719 214.617188 43.636719 210.910156 C 45.8125 209.410156 47.988281 207.910156 50.226562 206.363281 C 59.402344 200.101562 59.402344 200.101562 63.410156 186.816406 C 69.089844 174.546875 69.089844 174.546875 77.273438 170.683594 C 87.273438 170.910156 87.273438 170.910156 98.636719 174.546875 C 134.300781 185.488281 164.742188 170.394531 196.035156 154.53125 C 207.273438 149.089844 207.273438 149.089844 214.546875 149.089844 C 213.863281 119.089844 197.382812 92.753906 177.257812 71.234375 C 162.753906 58.105469 147.484375 46.722656 130.910156 36.363281 C 129.109375 34.5625 129.109375 34.5625 127.273438 32.726562 C 119.320312 32.464844 111.363281 32.421875 103.410156 32.5 C 99.054688 32.53125 94.699219 32.566406 90.214844 32.597656 C 85.15625 32.664062 85.15625 32.664062 80 32.726562 C 78.800781 38.726562 77.601562 44.726562 76.363281 50.910156 C 87.953125 54.316406 93.609375 54.863281 105.226562 50.910156 C 118.289062 46.644531 125.171875 46.570312 138.183594 50.910156 C 147.527344 63.792969 151.386719 75.929688 154.773438 91.363281 C 157.683594 104.558594 159.699219 112.277344 167.273438 123.636719 C 165.910156 131.589844 165.910156 131.589844 163.636719 138.183594 C 161.238281 138.183594 158.835938 138.183594 156.363281 138.183594 C 150.226562 130.972656 144.167969 123.699219 138.183594 116.363281 C 125.625 110.085938 111.914062 110.914062 98.183594 112.726562 C 87.960938 119.386719 87.960938 119.386719 80 127.273438 C 71.589844 130 71.589844 130 65.453125 130.910156 C 65.453125 116.363281 65.453125 116.363281 72.726562 109.089844 C 50.929688 104.199219 41.164062 107.0625 21.816406 116.363281 C 18.21875 116.363281 14.617188 116.363281 10.910156 116.363281 C 11.363281 109.773438 11.363281 109.773438 14.546875 101.816406 C 36.679688 85.925781 62.238281 89.332031 87.953125 92.726562 C 101.777344 94.847656 101.777344 94.847656 115.683594 94.546875 C 127.273438 94.546875 127.273438 94.546875 138.183594 98.183594 C 134.582031 87.382812 130.980469 76.582031 127.273438 65.453125 C 123.898438 66.355469 123.898438 66.355469 120.453125 67.273438 C 99.9375 70.554688 79.519531 73.621094 61.816406 61.816406 C 59.441406 37.25 59.441406 37.25 66.035156 24.703125 C 87.503906 3.78125 133.859375 12.5 153.847656 30.921875 Z M 153.847656 30.921875 "/>
<path style=" stroke:none;fill-rule:nonzero;fill:rgb(0%,0%,0%);fill-opacity:1;" d="M 47.273438 138.183594 C 50.871094 139.382812 54.472656 140.582031 58.183594 141.816406 C 54.136719 151.746094 50.277344 156.945312 42.273438 164.316406 C 30.167969 177.285156 24.5625 190.90625 18.183594 207.273438 C 14.582031 206.074219 10.980469 204.871094 7.273438 203.636719 C 9.3125 178.160156 17.800781 162.648438 36.589844 145.683594 C 40.117188 143.207031 43.640625 140.730469 47.273438 138.183594 Z M 47.273438 138.183594 "/>
<path style=" stroke:none;fill-rule:nonzero;fill:rgb(0%,0%,0%);fill-opacity:1;" d="M 105.683594 141.589844 C 110.96875 141.703125 110.96875 141.703125 116.363281 141.816406 C 116.363281 145.417969 116.363281 149.019531 116.363281 152.726562 C 99.199219 160.785156 84.628906 165.769531 65.453125 167.273438 C 63.054688 166.074219 60.65625 164.871094 58.183594 163.636719 C 58.183594 160.035156 58.183594 156.4375 58.183594 152.726562 C 61.664062 152.003906 61.664062 152.003906 65.214844 151.265625 C 68.21875 150.621094 71.222656 149.980469 74.316406 149.316406 C 77.3125 148.683594 80.308594 148.050781 83.394531 147.402344 C 94.460938 144.535156 92.921875 141.851562 105.683594 141.589844 Z M 105.683594 141.589844 "/>
<path style=" stroke:none;fill-rule:nonzero;fill:rgb(0%,0%,0%);fill-opacity:1;" d="M 189.089844 112.726562 C 193.890625 113.925781 198.691406 115.128906 203.636719 116.363281 C 205.410156 139.433594 205.410156 139.433594 197.046875 150.683594 C 189.089844 156.363281 189.089844 156.363281 178.183594 156.363281 C 180.265625 145.9375 181.3125 142.320312 189.089844 134.546875 C 189.699219 123.332031 189.699219 123.332031 189.089844 112.726562 Z M 189.089844 112.726562 "/>
</g>
</svg>
