<?xml version="1.0" encoding="UTF-8"?>
<svg xmlns="http://www.w3.org/2000/svg" xmlns:xlink="http://www.w3.org/1999/xlink" width="240px" height="240px" viewBox="0 0 240 240" version="1.1">
<g id="surface1">
<path style=" stroke:none;fill-rule:nonzero;fill:rgb(0%,0%,0%);fill-opacity:1;" d="M 83.222656 100.621094 C 85.164062 100.648438 87.109375 100.671875 89.113281 100.699219 C 90.59375 100.734375 92.074219 100.765625 93.601562 100.800781 C 97.484375 108.589844 101.179688 116.457031 104.851562 124.351562 C 105.941406 126.53125 107.03125 128.714844 108.15625 130.964844 C 115.359375 146.773438 115.617188 156.3125 109.9375 172.769531 C 109.300781 174.363281 108.660156 175.957031 108 177.601562 C 113.542969 178.390625 119.089844 179.183594 124.800781 180 C 128.363281 166.933594 128.363281 166.933594 132 153.601562 C 130.414062 153.601562 128.832031 153.601562 127.199219 153.601562 C 128.625 140.878906 132.898438 130.605469 138.148438 119.101562 C 138.941406 117.332031 139.730469 115.566406 140.546875 113.746094 C 142.480469 109.425781 144.4375 105.109375 146.398438 100.800781 C 147.917969 100.707031 149.4375 100.617188 151 100.519531 C 152.75 100.414062 154.5 100.308594 156.300781 100.199219 C 167.695312 99.507812 173.605469 103.277344 182.398438 110.398438 C 187.011719 115.945312 190.867188 121.847656 194.699219 127.949219 C 195.699219 129.484375 196.699219 131.015625 197.726562 132.59375 C 200.679688 137.160156 203.554688 141.765625 206.398438 146.398438 C 207.328125 147.90625 208.253906 149.414062 209.207031 150.964844 C 214.488281 159.824219 217.960938 166.914062 217.386719 177.507812 C 214.488281 187.726562 206.578125 194.339844 199.199219 201.601562 C 197.792969 203.230469 196.382812 204.859375 194.933594 206.539062 C 187.441406 214.984375 184.558594 218.160156 172.949219 219.449219 C 170.523438 219.101562 168.097656 218.757812 165.601562 218.398438 C 164.808594 222.359375 164.015625 226.320312 163.199219 230.398438 C 134.6875 230.398438 106.175781 230.398438 76.800781 230.398438 C 76.800781 225.648438 76.800781 220.894531 76.800781 216 C 74.425781 217.1875 74.425781 217.1875 72 218.398438 C 64.679688 219.648438 59.769531 219.929688 53.542969 215.542969 C 49.246094 211.550781 45.234375 207.40625 41.25 203.101562 C 39.847656 201.652344 38.445312 200.203125 37 198.710938 C 27.457031 188.761719 22.9375 183.242188 23.132812 168.6875 C 24.796875 158.148438 30.820312 149.925781 36.601562 141.148438 C 37.777344 139.277344 38.957031 137.402344 40.171875 135.472656 C 62.566406 100.265625 62.566406 100.265625 83.222656 100.621094 Z M 69.601562 148.800781 C 66.671875 152.335938 63.835938 155.953125 61.050781 159.601562 C 59.511719 161.605469 57.976562 163.609375 56.390625 165.675781 C 55.207031 167.234375 54.019531 168.792969 52.800781 170.398438 C 55.039062 173.109375 57.292969 175.808594 59.550781 178.5 C 61.429688 180.753906 61.429688 180.753906 63.347656 183.054688 C 67.398438 187.734375 67.398438 187.734375 74.398438 192 C 73.609375 177.742188 72.816406 163.488281 72 148.800781 C 71.207031 148.800781 70.414062 148.800781 69.601562 148.800781 Z M 168 148.800781 C 167.207031 163.054688 166.414062 177.3125 165.601562 192 C 168.273438 189.773438 170.945312 187.546875 173.699219 185.25 C 175.957031 183.371094 175.957031 183.371094 178.257812 181.453125 C 182.933594 177.402344 182.933594 177.402344 187.199219 170.398438 C 184.460938 166.792969 181.707031 163.195312 178.949219 159.601562 C 177.417969 157.59375 175.886719 155.589844 174.308594 153.523438 C 173.019531 151.964844 171.730469 150.40625 170.398438 148.800781 C 169.609375 148.800781 168.816406 148.800781 168 148.800781 Z M 168 148.800781 "/>
<path style=" stroke:none;fill-rule:nonzero;fill:rgb(0%,0%,0%);fill-opacity:1;" d="M 132 14.398438 C 139.886719 17.851562 145.6875 22.183594 151.199219 28.800781 C 155.378906 41.34375 155.878906 54.894531 150.449219 67.050781 C 141 78.601562 141 78.601562 132 81.601562 C 121.128906 82.558594 111.269531 82.949219 101.101562 78.75 C 99.417969 77.316406 97.734375 75.878906 96 74.398438 C 94.167969 72.867188 92.335938 71.332031 90.449219 69.75 C 84.007812 58.058594 84.0625 46.613281 86.398438 33.601562 C 97.285156 14.054688 110.992188 12.667969 132 14.398438 Z M 132 14.398438 "/>
<path style=" stroke:none;fill-rule:nonzero;fill:rgb(0%,0%,0%);fill-opacity:1;" d="M 98.398438 100.800781 C 112.65625 100.800781 126.910156 100.800781 141.601562 100.800781 C 135.265625 116.640625 128.929688 132.480469 122.398438 148.800781 C 120.816406 148.800781 119.230469 148.800781 117.601562 148.800781 C 111.265625 132.960938 104.929688 117.121094 98.398438 100.800781 Z M 98.398438 100.800781 "/>
</g>
</svg>
