<?xml version="1.0" encoding="UTF-8"?>
<svg xmlns="http://www.w3.org/2000/svg" xmlns:xlink="http://www.w3.org/1999/xlink" width="240px" height="240px" viewBox="0 0 240 240" version="1.1">
<g id="surface1">
<path style=" stroke:none;fill-rule:nonzero;fill:rgb(0%,0%,0%);fill-opacity:1;" d="M 37.5 75 C 47.398438 75 57.300781 75 67.5 75 C 67.5 87.375 67.5 99.75 67.5 112.5 C 69.976562 112.5 72.449219 112.5 75 112.5 C 75 108.789062 75 105.074219 75 101.25 C 79.949219 101.25 84.898438 101.25 90 101.25 C 91.238281 97.539062 92.476562 93.824219 93.75 90 C 103.671875 89.898438 113.59375 89.824219 123.515625 89.765625 C 127.761719 89.71875 127.761719 89.71875 132.09375 89.671875 C 139.3125 89.636719 146.53125 89.804688 153.75 90 C 157.5 93.75 157.5 93.75 157.734375 103.359375 C 157.65625 106.375 157.578125 109.390625 157.5 112.5 C 162.449219 112.5 167.398438 112.5 172.5 112.5 C 172.5 100.125 172.5 87.75 172.5 75 C 182.398438 75 192.300781 75 202.5 75 C 202.5 79.949219 202.5 84.898438 202.5 90 C 207.449219 90 212.398438 90 217.5 90 C 217.5 97.425781 217.5 104.851562 217.5 112.5 C 222.449219 112.5 227.398438 112.5 232.5 112.5 C 232.5 119.925781 232.5 127.351562 232.5 135 C 227.550781 135 222.601562 135 217.5 135 C 217.5 139.949219 217.5 144.898438 217.5 150 C 215.023438 150 212.550781 150 210 150 C 210 133.914062 210 117.824219 210 101.25 C 207.523438 101.25 205.050781 101.25 202.5 101.25 C 202.5 122.289062 202.5 143.324219 202.5 165 C 200.023438 165 197.550781 165 195 165 C 193.144531 126.019531 193.144531 126.019531 191.25 86.25 C 188.773438 86.25 186.300781 86.25 183.75 86.25 C 183.75 111 183.75 135.75 183.75 161.25 C 186.226562 162.488281 188.699219 163.726562 191.25 165 C 191.25 167.476562 191.25 169.949219 191.25 172.5 C 185.0625 172.5 178.875 172.5 172.5 172.5 C 172.5 160.125 172.5 147.75 172.5 135 C 167.550781 135 162.601562 135 157.5 135 C 156.957031 137.242188 156.417969 139.484375 155.859375 141.796875 C 154.171875 148.355469 152.140625 154.824219 150 161.25 C 151.195312 168.621094 151.195312 168.621094 153.515625 176.484375 C 158.132812 195.320312 158.226562 213.203125 157.5 232.5 C 155.023438 232.5 152.550781 232.5 150 232.5 C 141.113281 202.660156 134.984375 173.757812 138.75 142.5 C 141.226562 138.789062 143.699219 135.074219 146.25 131.25 C 147.1875 117.8125 147.1875 117.8125 146.25 105 C 142.371094 100.277344 142.371094 100.277344 133.929688 100.882812 C 130.492188 100.925781 127.058594 100.972656 123.515625 101.015625 C 120.070312 101.050781 116.621094 101.082031 113.070312 101.117188 C 110.40625 101.160156 107.746094 101.207031 105 101.25 C 102.523438 109.914062 100.050781 118.574219 97.5 127.5 C 95.023438 127.5 92.550781 127.5 90 127.5 C 90 122.550781 90 117.601562 90 112.5 C 87.523438 112.5 85.050781 112.5 82.5 112.5 C 83.738281 119.925781 84.976562 127.351562 86.25 135 C 93.675781 137.476562 101.101562 139.949219 108.75 142.5 C 110.277344 174.410156 106.617188 201.894531 97.5 232.5 C 95.023438 232.5 92.550781 232.5 90 232.5 C 88.9375 205.3125 91.839844 180.339844 97.5 153.75 C 87.601562 147.5625 77.699219 141.375 67.5 135 C 67.5 144.898438 67.5 154.800781 67.5 165 C 65.023438 165 62.550781 165 60 165 C 58.761719 139.011719 57.523438 113.023438 56.25 86.25 C 53.773438 86.25 51.300781 86.25 48.75 86.25 C 48.75 111 48.75 135.75 48.75 161.25 C 51.226562 162.488281 53.699219 163.726562 56.25 165 C 56.25 167.476562 56.25 169.949219 56.25 172.5 C 50.0625 172.5 43.875 172.5 37.5 172.5 C 37.5 167.550781 37.5 162.601562 37.5 157.5 C 32.550781 157.5 27.601562 157.5 22.5 157.5 C 22.5 150.074219 22.5 142.648438 22.5 135 C 17.550781 135 12.601562 135 7.5 135 C 7.5 127.574219 7.5 120.148438 7.5 112.5 C 12.449219 112.5 17.398438 112.5 22.5 112.5 C 22.5 105.074219 22.5 97.648438 22.5 90 C 27.449219 90 32.398438 90 37.5 90 C 37.5 85.050781 37.5 80.101562 37.5 75 Z M 30 101.25 C 30 116.101562 30 130.949219 30 146.25 C 32.476562 146.25 34.949219 146.25 37.5 146.25 C 37.5 131.398438 37.5 116.550781 37.5 101.25 C 35.023438 101.25 32.550781 101.25 30 101.25 Z M 18.75 120 C 22.5 127.5 22.5 127.5 22.5 127.5 Z M 67.5 120 C 67.5 122.476562 67.5 124.949219 67.5 127.5 C 69.976562 127.5 72.449219 127.5 75 127.5 C 75 125.023438 75 122.550781 75 120 C 72.523438 120 70.050781 120 67.5 120 Z M 157.5 120 C 157.5 122.476562 157.5 124.949219 157.5 127.5 C 162.449219 127.5 167.398438 127.5 172.5 127.5 C 172.5 125.023438 172.5 122.550781 172.5 120 C 167.550781 120 162.601562 120 157.5 120 Z M 217.5 120 C 221.25 127.5 221.25 127.5 221.25 127.5 Z M 217.5 120 "/>
<path style=" stroke:none;fill-rule:nonzero;fill:rgb(0%,0%,0%);fill-opacity:1;" d="M 105 105 C 117.375 105 129.75 105 142.5 105 C 142.5 107.476562 142.5 109.949219 142.5 112.5 C 130.125 112.5 117.75 112.5 105 112.5 C 105 110.023438 105 107.550781 105 105 Z M 105 105 "/>
</g>
</svg>
