<?xml version="1.0" encoding="UTF-8"?>
<svg version="1.1" xmlns="http://www.w3.org/2000/svg" width="66" height="66">
<path d="M0 0 C1.70224031 1.56313231 1.70224031 1.56313231 3.7890625 2.9609375 C12.09369756 8.78700223 18.75384544 17.70422437 21.69140625 27.49609375 C21.69140625 30.68359375 21.69140625 30.68359375 20.69140625 33.49609375 C17.15990803 36.7391756 13.48234216 38.72126864 9.12890625 40.68359375 C7.45634766 41.44736328 7.45634766 41.44736328 5.75 42.2265625 C0.84939971 44.26065585 -2.9090681 44.63248548 -8.24609375 44.62109375 C-9.45136719 44.62367187 -10.65664063 44.62625 -11.8984375 44.62890625 C-14.84081967 44.51431176 -17.45348598 44.17871914 -20.30859375 43.49609375 C-20.70046875 44.40359375 -21.09234375 45.31109375 -21.49609375 46.24609375 C-23.38733095 49.63727769 -25.16406105 51.28642212 -28.30859375 53.49609375 C-28.96859375 53.16609375 -29.62859375 52.83609375 -30.30859375 52.49609375 C-30.30859375 51.50609375 -30.30859375 50.51609375 -30.30859375 49.49609375 C-29.71046875 49.08359375 -29.11234375 48.67109375 -28.49609375 48.24609375 C-25.97318787 46.52409639 -25.97318787 46.52409639 -24.87109375 42.87109375 C-23.30859375 39.49609375 -23.30859375 39.49609375 -21.05859375 38.43359375 C-18.30859375 38.49609375 -18.30859375 38.49609375 -15.18359375 39.49609375 C-5.37564929 42.50582778 2.99594537 38.35482 11.6015625 33.9921875 C14.69140625 32.49609375 14.69140625 32.49609375 16.69140625 32.49609375 C16.50389628 24.24565493 11.97185306 17.00395455 6.4375 11.0859375 C2.44877699 7.47516456 -1.75073246 4.34475706 -6.30859375 1.49609375 C-6.80359375 1.00109375 -6.80359375 1.00109375 -7.30859375 0.49609375 C-9.49498828 0.42350429 -11.68359764 0.41235592 -13.87109375 0.43359375 C-15.06863281 0.44261719 -16.26617188 0.45164062 -17.5 0.4609375 C-18.89025391 0.47833984 -18.89025391 0.47833984 -20.30859375 0.49609375 C-20.63859375 2.14609375 -20.96859375 3.79609375 -21.30859375 5.49609375 C-18.12189912 6.43335688 -16.56653798 6.58390455 -13.37109375 5.49609375 C-9.77933506 4.32327459 -7.88652382 4.30345039 -4.30859375 5.49609375 C-1.73841526 9.03963191 -0.67696648 12.37631411 0.25390625 16.62109375 C1.05462224 20.24919671 1.60856826 22.37183677 3.69140625 25.49609375 C3.31640625 27.68359375 3.31640625 27.68359375 2.69140625 29.49609375 C2.03140625 29.49609375 1.37140625 29.49609375 0.69140625 29.49609375 C-0.99591652 27.51348949 -2.66225432 25.51285955 -4.30859375 23.49609375 C-7.76193941 21.76942092 -11.53260007 21.99787236 -15.30859375 22.49609375 C-18.11958789 24.32737485 -18.11958789 24.32737485 -20.30859375 26.49609375 C-22.62109375 27.24609375 -22.62109375 27.24609375 -24.30859375 27.49609375 C-24.30859375 23.49609375 -24.30859375 23.49609375 -22.30859375 21.49609375 C-28.30273044 20.15047123 -30.98858022 20.93839494 -36.30859375 23.49609375 C-37.29859375 23.49609375 -38.28859375 23.49609375 -39.30859375 23.49609375 C-39.18359375 21.68359375 -39.18359375 21.68359375 -38.30859375 19.49609375 C-32.22197967 15.12621698 -25.19346378 16.06226625 -18.12109375 16.99609375 C-14.31942992 17.57871954 -14.31942992 17.57871954 -10.49609375 17.49609375 C-7.30859375 17.49609375 -7.30859375 17.49609375 -4.30859375 18.49609375 C-5.29859375 15.52609375 -6.28859375 12.55609375 -7.30859375 9.49609375 C-8.23671875 9.74359375 -8.23671875 9.74359375 -9.18359375 9.99609375 C-14.82577612 10.89884293 -20.44060537 11.74141934 -25.30859375 8.49609375 C-25.96241874 1.73990223 -25.96241874 1.73990223 -24.1484375 -1.7109375 C-18.24464527 -7.46431464 -5.49674078 -5.06618667 0 0 Z " fill="#000000" transform="translate(42.30859375,8.50390625)"/>
<path d="M0 0 C0.99 0.33 1.98 0.66 3 1 C1.8875371 3.73059074 0.82604672 5.16022013 -1.375 7.1875 C-4.70332045 10.75355762 -6.24496505 14.49965897 -8 19 C-8.99 18.67 -9.98 18.34 -11 18 C-10.43956019 10.99450237 -8.10443184 6.72816233 -2.9375 2.0625 C-1.968125 1.381875 -0.99875 0.70125 0 0 Z " fill="#000000" transform="translate(13,38)"/>
<path d="M0 0 C1.4540625 0.0309375 1.4540625 0.0309375 2.9375 0.0625 C2.9375 1.0525 2.9375 2.0425 2.9375 3.0625 C-1.78263858 5.27807525 -5.78994377 6.64896618 -11.0625 7.0625 C-11.7225 6.7325 -12.3825 6.4025 -13.0625 6.0625 C-13.0625 5.0725 -13.0625 4.0825 -13.0625 3.0625 C-12.10537109 2.86333984 -12.10537109 2.86333984 -11.12890625 2.66015625 C-10.30261719 2.48355469 -9.47632813 2.30695312 -8.625 2.125 C-7.80128906 1.95097656 -6.97757813 1.77695312 -6.12890625 1.59765625 C-3.08568002 0.80952394 -3.50902177 0.07161269 0 0 Z " fill="#000000" transform="translate(29.0625,38.9375)"/>
<path d="M0 0 C1.32 0.33 2.64 0.66 4 1 C4.48798077 7.34375 4.48798077 7.34375 2.1875 10.4375 C0 12 0 12 -3 12 C-2.42655063 9.13275314 -2.1385485 8.1385485 0 6 C0.16681109 2.91652174 0.16681109 2.91652174 0 0 Z " fill="#000000" transform="translate(52,31)"/>
</svg>
