<?xml version="1.0" encoding="UTF-8"?>
<svg version="1.1" xmlns="http://www.w3.org/2000/svg" width="100" height="100">
<path d="M0 0 C0.80993408 0.01071533 1.61986816 0.02143066 2.4543457 0.0324707 C3.07140381 0.04624756 3.68846191 0.06002441 4.32421875 0.07421875 C5.94209264 3.32036359 7.48211185 6.59817525 9.01171875 9.88671875 C9.46611328 10.79615234 9.92050781 11.70558594 10.38867188 12.64257812 C13.39106188 19.22921666 13.49753721 23.20391576 11.13208008 30.0612793 C10.86548584 30.72554932 10.5988916 31.38981934 10.32421875 32.07421875 C12.63421875 32.40421875 14.94421875 32.73421875 17.32421875 33.07421875 C18.80921875 27.62921875 18.80921875 27.62921875 20.32421875 22.07421875 C19.66421875 22.07421875 19.00421875 22.07421875 18.32421875 22.07421875 C18.91777246 16.77403488 20.69794507 12.49284982 22.88671875 7.69921875 C23.21607422 6.96316406 23.54542969 6.22710937 23.88476562 5.46875 C24.6916968 3.66777318 25.50710135 1.87059694 26.32421875 0.07421875 C26.9569873 0.03586914 27.58975586 -0.00248047 28.24169922 -0.04199219 C28.97018066 -0.08614258 29.69866211 -0.13029297 30.44921875 -0.17578125 C35.19765825 -0.46356546 37.65909508 1.1069878 41.32421875 4.07421875 C43.24594397 6.38543587 44.8515058 8.84398631 46.44921875 11.38671875 C46.86558594 12.02544922 47.28195313 12.66417969 47.7109375 13.32226562 C48.94085734 15.2249786 50.13941689 17.1431279 51.32421875 19.07421875 C51.71037354 19.70191162 52.09652832 20.32960449 52.49438477 20.97631836 C54.69362672 24.66795577 56.14093438 27.62122961 55.90234375 32.03515625 C54.69484075 36.29405198 51.39808598 39.04847469 48.32421875 42.07421875 C47.73769531 42.75355469 47.15117188 43.43289062 46.546875 44.1328125 C43.42550283 47.65054939 42.22287713 48.97436782 37.38671875 49.51171875 C36.37609375 49.36734375 35.36546875 49.22296875 34.32421875 49.07421875 C33.99421875 50.72421875 33.66421875 52.37421875 33.32421875 54.07421875 C21.44421875 54.07421875 9.56421875 54.07421875 -2.67578125 54.07421875 C-2.67578125 52.09421875 -2.67578125 50.11421875 -2.67578125 48.07421875 C-3.66578125 48.56921875 -3.66578125 48.56921875 -4.67578125 49.07421875 C-7.7257231 49.59504818 -9.77188636 49.71094101 -12.36572266 47.88378906 C-14.15646843 46.2207705 -15.8287691 44.49308138 -17.48828125 42.69921875 C-18.07287109 42.0959375 -18.65746094 41.49265625 -19.25976562 40.87109375 C-23.23570033 36.72469603 -25.11925774 34.42475829 -25.03710938 28.36083984 C-24.34314641 23.96917964 -21.83440732 20.54255959 -19.42578125 16.88671875 C-18.93464844 16.10619141 -18.44351562 15.32566406 -17.9375 14.52148438 C-8.60595249 -0.14770831 -8.60595249 -0.14770831 0 0 Z M-5.67578125 20.07421875 C-6.89536657 21.54824992 -8.07691988 23.05389114 -9.23828125 24.57421875 C-9.87894531 25.40953125 -10.51960938 26.24484375 -11.1796875 27.10546875 C-11.67339844 27.75515625 -12.16710938 28.40484375 -12.67578125 29.07421875 C-11.74304016 30.20316751 -10.80438003 31.32722751 -9.86328125 32.44921875 C-9.08017578 33.38894531 -9.08017578 33.38894531 -8.28125 34.34765625 C-6.59352386 36.29632355 -6.59352386 36.29632355 -3.67578125 38.07421875 C-4.00578125 32.13421875 -4.33578125 26.19421875 -4.67578125 20.07421875 C-5.00578125 20.07421875 -5.33578125 20.07421875 -5.67578125 20.07421875 Z M35.32421875 20.07421875 C34.99421875 26.01421875 34.66421875 31.95421875 34.32421875 38.07421875 C35.43796875 37.14609375 36.55171875 36.21796875 37.69921875 35.26171875 C38.63894531 34.47861328 38.63894531 34.47861328 39.59765625 33.6796875 C41.54632355 31.99196136 41.54632355 31.99196136 43.32421875 29.07421875 C42.18215517 27.57134657 41.03546918 26.07198591 39.88671875 24.57421875 C39.24863281 23.73890625 38.61054687 22.90359375 37.953125 22.04296875 C37.41558594 21.39328125 36.87804687 20.74359375 36.32421875 20.07421875 C35.99421875 20.07421875 35.66421875 20.07421875 35.32421875 20.07421875 Z " fill="#000000" transform="translate(34.67578125,41.92578125)"/>
<path d="M0 0 C3.28636404 1.43778427 5.70241762 3.24290115 8 6 C9.74193868 11.22581604 9.95030398 16.8731292 7.6875 21.9375 C3.75 26.75 3.75 26.75 0 28 C-4.52900064 28.39916616 -8.63712416 28.56292698 -12.875 26.8125 C-13.57625 26.214375 -14.2775 25.61625 -15 25 C-15.763125 24.360625 -16.52625 23.72125 -17.3125 23.0625 C-19.99716232 18.19033505 -19.97415094 13.42229604 -19 8 C-14.46519626 -0.14329086 -8.7533936 -0.72205996 0 0 Z " fill="#000000" transform="translate(55,6)"/>
<path d="M0 0 C5.94 0 11.88 0 18 0 C15.36 6.6 12.72 13.2 10 20 C9.34 20 8.68 20 8 20 C5.36 13.4 2.72 6.8 0 0 Z " fill="#000000" transform="translate(41,42)"/>
</svg>
