<?xml version="1.0" encoding="UTF-8"?>
<svg version="1.1" xmlns="http://www.w3.org/2000/svg" width="64" height="64">
<path d="M0 0 C2.64 0 5.28 0 8 0 C8 3.3 8 6.6 8 10 C8.66 10 9.32 10 10 10 C10 9.01 10 8.02 10 7 C11.32 7 12.64 7 14 7 C14.33 6.01 14.66 5.02 15 4 C17.64590014 3.97315321 20.29153096 3.95323643 22.9375 3.9375 C24.06961914 3.92493164 24.06961914 3.92493164 25.22460938 3.91210938 C27.14994313 3.90347559 29.07535581 3.94775667 31 4 C32 5 32 5 32.0625 7.5625 C32.041875 8.366875 32.02125 9.17125 32 10 C33.32 10 34.64 10 36 10 C36 6.7 36 3.4 36 0 C38.64 0 41.28 0 44 0 C44 1.32 44 2.64 44 4 C45.32 4 46.64 4 48 4 C48 5.98 48 7.96 48 10 C49.32 10 50.64 10 52 10 C52 11.98 52 13.96 52 16 C50.68 16 49.36 16 48 16 C48 17.32 48 18.64 48 20 C47.34 20 46.68 20 46 20 C46 15.71 46 11.42 46 7 C45.34 7 44.68 7 44 7 C44 12.61 44 18.22 44 24 C43.34 24 42.68 24 42 24 C41.505 13.605 41.505 13.605 41 3 C40.34 3 39.68 3 39 3 C39 9.6 39 16.2 39 23 C39.66 23.33 40.32 23.66 41 24 C41 24.66 41 25.32 41 26 C39.35 26 37.7 26 36 26 C36 22.7 36 19.4 36 16 C34.68 16 33.36 16 32 16 C31.855625 16.598125 31.71125 17.19625 31.5625 17.8125 C31.1127561 19.56150404 30.57107659 21.28677023 30 23 C30.31854073 24.9651271 30.31854073 24.9651271 30.9375 27.0625 C32.16856026 32.08588683 32.19336065 36.85445825 32 42 C31.34 42 30.68 42 30 42 C27.6297629 34.04277545 25.99561344 26.33510404 27 18 C27.66 17.01 28.32 16.02 29 15 C29.25015873 11.41642759 29.25015873 11.41642759 29 8 C27.96593327 6.74050951 27.96593327 6.74050951 25.71484375 6.90234375 C24.79832031 6.91394531 23.88179687 6.92554688 22.9375 6.9375 C22.01839844 6.94652344 21.09929688 6.95554687 20.15234375 6.96484375 C19.44207031 6.97644531 18.73179688 6.98804688 18 7 C17.34 9.31 16.68 11.62 16 14 C15.34 14 14.68 14 14 14 C14 12.68 14 11.36 14 10 C13.34 10 12.68 10 12 10 C12.33 11.98 12.66 13.96 13 16 C14.98 16.66 16.96 17.32 19 18 C19.40735653 26.50922528 18.43092956 33.8390222 16 42 C15.34 42 14.68 42 14 42 C13.71692075 34.75002578 14.49025965 28.09038772 16 21 C13.36 19.35 10.72 17.7 8 16 C8 18.64 8 21.28 8 24 C7.34 24 6.68 24 6 24 C5.67 17.07 5.34 10.14 5 3 C4.34 3 3.68 3 3 3 C3 9.6 3 16.2 3 23 C3.66 23.33 4.32 23.66 5 24 C5 24.66 5 25.32 5 26 C3.35 26 1.7 26 0 26 C0 24.68 0 23.36 0 22 C-1.32 22 -2.64 22 -4 22 C-4 20.02 -4 18.04 -4 16 C-5.32 16 -6.64 16 -8 16 C-8 14.02 -8 12.04 -8 10 C-6.68 10 -5.36 10 -4 10 C-4 8.02 -4 6.04 -4 4 C-2.68 4 -1.36 4 0 4 C0 2.68 0 1.36 0 0 Z M-2 7 C-2 10.96 -2 14.92 -2 19 C-1.34 19 -0.68 19 0 19 C0 15.04 0 11.08 0 7 C-0.66 7 -1.32 7 -2 7 Z M-5 12 C-4 14 -4 14 -4 14 Z M8 12 C8 12.66 8 13.32 8 14 C8.66 14 9.32 14 10 14 C10 13.34 10 12.68 10 12 C9.34 12 8.68 12 8 12 Z M32 12 C32 12.66 32 13.32 32 14 C33.32 14 34.64 14 36 14 C36 13.34 36 12.68 36 12 C34.68 12 33.36 12 32 12 Z M48 12 C49 14 49 14 49 14 Z " fill="#000000" transform="translate(10,20)"/>
<path d="M0 0 C3.3 0 6.6 0 10 0 C10 0.66 10 1.32 10 2 C6.7 2 3.4 2 0 2 C0 1.34 0 0.68 0 0 Z " fill="#000000" transform="translate(28,28)"/>
</svg>
